<svg
        xmlns="http://www.w3.org/2000/svg"
        version="1.1"
        viewBox="0 0 1920 1200"
        className="h-full w-full"
      >
        <path
          transform="translate(0)"
          d="m0 0h1920v1200h-1920z"
          fill="#2D0F2A"
        />
        <path
          transform="translate(0)"
          d="m0 0h1920v501l-5-2-12-3-8-4-2-2-7 1-7 3-7 2-11-1-16-4-8-4h-6l-5 3-17 5-6 2h-8l-9-3-5-2-12-2-14-8-1-1-27-3-10 5-10 3h-13l-9 4h-28l-17 8-19 2-12 4-9-1-4-2h-7l-5 3-16 6-9 4-12-3-13-5h-18l-5-3h-5l-5 3-7 3-5-1-12-5-8-4-11-3-3-9-12-2h-9l-2 4-11 9-4 3-8 3-6 3-3 3h-16l-15-3-28-15-4-2-13-1-2-1v-2l-5-2-6-5-2-5-13 4-6 2h-8l-8-9-3-5-7-2-1-4h-15l-15 5-14 8-3 1v2l-12-1-15 9-23 13-11-1-11-4-16-2-14-3-13-4 1-4 3-4-5 5-4-2-5-5v2h2v2h2l1 4-15-5-15-7-21-8-12-7-9-2-10-5-9-6-16-9-10-6-6-3-14-9-5-1-14 7-17 10-8 5-9 4-17 7-4 3-11 4-9 5-9 2-9 4-11 7-5 2-7-1-9-4-6 1-3 2-9 1-18-6-14-7-7-5-5 1-10 6-5 4-10 5-8 2-11 6-9 5h-5l-3-1-11 4-9 5-8 5-16 7-7 3-6-2-5-6v-4l-5-1v-2l2-1-5-3-10 1-4 1v2h2v2l-5 1v2l-5 5-10 2-3 1v2l-17-4-16-6-4-1-26-7-14-5-5 1-5 3-20 7h-4l1-5-1 1-2 6-14 5-9 3v-3h2l1-3 3-1 1-2-5 1 3-3h2v-2h-7l4-3 1-3h2l-2-3-1-3-5 2-5-1 1 5-1 4 4 2v2l-6-2v7l6 3v3l-6-3v6l-3 1-9-3 3-1v-3h-2v-2l-3-1v-2l2-1-2-1v-4h-2l-1 5-2 2-1 4-2 4-7-1-2 6-5 5-3-2v-3h-3l-1-2-3-1-4 1v2l-9-1-11-4-14-3-8-6-10-3-17-8-8 1-7 4-5-1-9-4h-19l-12 1v2l-7 1-16-4-3-2-14-3-11-9-5-4-13-6-32-14h-6l-10 5-13 9-6 4-8 3-6 4-10 5-3 3-16 8-12 3-6 4-5 1-2 4-5 1-11-5h-14l-7-7-8-5-11-8-4-2z"
          fill="#FDD9C6"
          className="first"
        />
        <path
          transform="translate(954,412)"
          d="m0 0 5 1 14 9 22 12 13 8 6 4 12 6 9 2 10 6 26 10 12 6 10 3h2v-2h-2v-2h-2v-2l4 2 5 5 2-4 3-1-4 8 11 2 9 3 12 2 11 1 11 4 11 1 23-13 15-9 10 1 2 1v-2l15-9 7-3 10-3 15 1 1 4 7 1 10 13 1 1h8l14-5h5l4 6 9 6v2l15 1 29 15 3 2 15 3h16l4-4 10-4 6-3 10-9 6-5h7l12 2 2 2 1 8 8 1 18 8 6 3 6-1 9-4 1-1h5l5 3h18l15 6 10 2 12-5 13-5 5-3h7l8 3 9-1 8-3 19-2 17-8h28l9-4h13l13-4 7-4 27 3 9 6 6 3 12 2 9 4 5 1h8l27-9 1-1h6l8 4 16 4 11 1 7-2 10-4 5 1 6 4 9 3 8 2 3 2v51l-17 6-7 2-4-6-2-7-15-4-7-2-16-3-4-4-12 2h-8l-9-1-2 6-2 3h-2v-3l-5 5-3 1h-8l-9-4-11-4-12-3-10-7-10-6-1-1h-8l-1 3-5 4-11 9-10 6-5 5-3 1-17 1-4 2h-8l-8-1-10 5-9 1-5 2-7 2-9 7-3-1-3-3-2 4 2 1-5 3-8 1-1 2-5-2-10 2-1-2h3v-2l-2-1v-3l-3-1 1-5v-3l-2-1-3-1 5-2v-2h-2v-2h2l-3-6-1-7v-3l-4 1 1 3-6-2v2l-2 1v3l7 2v1h-7l-4 1v3h2v2l-3 1 1 2-2 4-9 2v-2l5-4-2-1-1 2h-2v-5h2v-2l3-2 1-5-4 1v2h-2l1-6-1-5v-2l-4 1 3 2v5h-3l3 5-2 1-3-4-1 2 3 1v2h2l-1 4 1 1 1 3-4 1-4-4 4 5 3 2-1 4h-3l4 2v5h-3v-2l-5-1-2-1v2l5 2 5 3v7l-2 2-1-7-1 5v5l-5-2-7-5v-2l-4-2-7-7-3-2v-3l4 1v-2l-4-2-2-4 1-3-2-5v-3h2l-3-5v-5l-1 10-2 2-2 9h-3l-1 5h-2v2l2 1-4-1-2-4 1-3v-11h-2l-2 9-2 2-2 4v4l-4 2-1-2h-3l-2-3-5 3-4-1 5-2v-2l4-3-4 2-4-1 5-2v-2l5-2v-2l-7 4-3-1h2l-1-3 4-1v-2h-4l2-4 2-1-8 1 5-5-3 1-3-1 4-3-2-1v2h-6v-2l5-2-2-2 3-5-3-2 3-1 1-4h-4v-2h2l-1-2h-2v-3h-3l-1-4v3l-2 1 2 5h-3l1 4 2 2-5-1 5 5v2l-6-1-1 1v2l7 2v1h-8l1 3 7 2v2l-8-1v4h-3v2l3 1v3h-3v2l4 1 2 2-6-1v2l4 1-1 2-2-1-1 2-2-1 4 7-2 1 6 1v1h-9l3 9-9 2-13-2-1-5v-11l-1 15-5 1-12-6-1-3-4 1-1-1-8-1-1-3h-9l-5-3-2-6-1-4 1-5-2-6-1-5h2l-6-13v-6h-2l-1 11-4 8-1 6-2 7 2 1-1 3-1 4-2 4 4 1-3 3-2 5-7 3 1 2v10l-3 4h-2v2h-2l-1 4v9l-3 3h-3v-2h-3v-2l4-2-4-1 4-1-5-1 3-4-5-1 1-3 3-1 1-2h2v-2l-5 3-2-1 2-3h2v-2l-7 2-2-1v3l2 1-3 4 4 1v3l-5-1 1 3 4 2-3 1 2 3-5-1v5l-5-1v-4h-2v-2l-3-2 1-2h2l-3-6 2-1 1-4-5-1 3-2-4-4 1-4-4 1-2 1 1 3-2 3v4h-2v2l3 2-4 2 4 2h-2l-2 4-2 5 4 1-3 1-2 4h2l1 6-5-2v-2l-11-1 2-3-2-2v-3l-5 1 3-3h2v-2l-3-1 2-3v-3l-5 2 1-4-4-2 1 7h-4v6l4 4-6-1 3 4v2h-5l3 3-3 1-5-1-3-5 2-2-5-11v-3h-2l-1 9-2 5-2 7-6 1v-8l-2 6h-2v-3l-2-1-1-4-8 1v-2l4-1-2-2 7-3-4-1-4 2 1-4 5-2 1-4-5 4h-2v-4l3-3v-2l-3-1 1-5-2-4v8h-2l1 4-4-3 1 6h-2l-2 3 7 6-1 2-7-6 1 4 6 4-2 1-3-1v-2h-3l3 4-4-1-2 2-1 3-2-1 3 3v2h3v2h3v2l-8-2-1-2h-3l-2-4v-9l-4-14v-4h-2l-1 5-3 5-1 8h-2l1 6-2 3h-2l-3-6-2-5 4 1-4-7-1-4 2-1-4-5 1-5h-2l-1-5h3l-5-5h3l-3-3 1-2-2-4-3-9-3 13-3 3 1 4-3 9-1 9-1 4v3h-2l-2-7 2-2h-5l2-4 1-4-6 2 1-3h2v-3l-6 2v-3l8-3 2 1-1-6-1-1-1 2-3-1-5 2 1-4 5-1-2-3-7 1-4-2-1 2 4 2-1 1 4 1-1 4-4-1v-2l-3 1 1 4-1 2 8 1v3l-6-1h-3l4 4h-5l-1 2 7 2-2 3-6-1v-7l-3-1v-2l-2-1v-2h3v-4l-4-2 5-5-8-2 3-1h2l-2-1-1-3-2-1-1-3-3 2v4l-2 2 2 3h-3v3l3 1-4 4h2l-2 4-2 5 4 1-4 1-1 5h5l-3 3h-2l-3 10-1 1 3 1-2 2v2h-2v2h-3l-1-4-9 1 4-2 3-1 1-4-3-1 3-5-5 1 2-4 1-1-7 2v-2l6-3 1-6-7 2 4-4-1-1 1-7-4 1v-2h2v-3h-5v3 4h-3l-1 5 5 2v2h-5l-1 2 3 2h-2l2 4-5-2 1 1 2 5-3-1v3l6 2v1l-5 1-1 2 2 1h-2l-2 7h2v2l-6-1-2-2v-6l2-2-6 1v-2l-5 1v-2l7-5h-5l3-5v-4h-2l-1-6-3 1 1-13-2 3-2-1 2 3v5h-2l2 7-1 4-1-6-4 1 2 5 1 4-5-2 1 5-1 1 2 1v2l5 1v3l-6-2-9-6-4-3 10 9 3 3v2 3l-4-1 1 3h-3l5 1v1h-7v3l-5 2h2l-1 2-1 1 2 1v2h-4v2l3 1 1 2 7 1v2l-4 1-5-1v-2h-2v3l2 1 3 2v2l-5-1v4l4 1-4 1-4-3h-3v-2l-4-2 4-4h-4l-1-3 5-2v-2h-9v-1l6-2 2-4h-2v2h-2v-2l-2-1 1-3-3-3 1-34 1-10-4-1-1 4 2 1-2 35-1 10v2l-4 2 3 2v2l-2 1 1 5-4 1v8l-2 2-2 5-1 7-1 2-3-1v-2h-2v-2h-2l1-5-4-12 1-4-4-4v-3l-2 1-2 5v4l1 2-4 8v12l-4 10h-4l1 6-1 3-1 10-1 2h-2l1 3-4-1v-2h-5l-2-2v-3h-2l-1-2v2l-3 2-2 5-10-2-4-2 2-2-2-7h3l2 2 1-2-4-2-4 1v5l-4 1-2-3h-7l-3-2 2-3 3 1v2h4v-2l-4-1v-2h-5v-3h-2l-3-4 4-2-5-6 2-3h2l1-2 2-2-7-3-3-5-5-1-3-2v3l4 1 1 4-2 6h2l-2 5-7 8-4 5 3-2h5l1 4-5 4-4 7-7-1-1-5 3-2h-6l-3 1v-19l1-15-1-3-1 5-2 24-1 9 2 3-2 6-4-4-6 3-6-2-1 5 5 1 1 4 1 3h-5v-3h-5v2l4 1v2h-8v3l-3 1-4-2-2-9v-4h-2l1-5-2-4v-9l-4 1-1-6-4-2 1-4 3-3-3-3-3-5v-2h3v-2l-2-1h3l-3-5 2-2-2-2-2-6 3-3-2-5 1-2-3-4-1 3h-2l-1 3-2-1v2h3v2l2 1-7 2-2 1v2h-2v3h5l-1 4 2 4-8 2 7 1v3l-5 2 2 5-3 1 5 2-2 5-1 7-5 1-1-3-6 3-8 7-4 2-4-1 6-4 1-2-6 1-1-4 5-4 9-6 1-3-4-1v-3h-3l-2 4-2 3-3-1 4-8 2-6h-2v-10l-2 9-3 3-1 11h-3l-5-10v9l-1 4v2h2l4 6v3l1 4h-3l-5-6-3-1v4h-6l-6-5-1-2-1-9-3-12-2-6-3 1-5 19v3l1 3-3 6h-2v11l-4 7-3-4v-6l-4-6-3-21-2 7-6 4-4-1-1-2 2-4-2-1v-3l-4 1 3 6-2 3-6-1 2 6 6 4-2 3-4-1v-2h-4l-4-5-2-1v-4l-3-1-3-13-5-9-1-4-1 3h-2l-2 8-1 6-1 4h2l-1 7-1 17-2 3h-2v3l-4-2 1-4-4-1v-2h-3l-2 4-2 7h-2l-1 6-4-2-2-3-5-19-2-18-4-7v-6l-2-3-1-6h-1l-3 12v2h-2l-1 12-6 12-3 3-7 1-2-2-2 3-9 1h-6l-2 5-1 1-12 2h-5l-6-10-3-2-18-1-9-4-3-3-2-7v-12l-3 2v12l-3 2h-17l-5-3v-6l2-4-2-11v-11l-2-6-1-6-2-4-3-16v-3l-3 3-3 10-1 2-2 19-2 9-1 16-3 3-5 2h-3l-1-5-5-5 1-4h2l-3-9-3-1-1-7-1-9-3 3-1 5-1 4-4 6-4 1 3 3-1 5-3-1-5-6-3-3-1-6-15-2-13-4-8-4-3-2-8-2v-2l-4-1-5-6-3-3-9-5-16-3h-7l-5 1-2-1-1-4-1-15-1 15-9-6-2-12-3-10v-3l-14-2-5-2-1-4-3-1-4-11h3l-6-15-3 9-2 2-2 5h2l-2 6-4 9-3 3-10 1-7 9-12 1-16 1-4 2-1 3-8 3-10-2-12 1-6-3-7-1-19 3h-6l-12-5-10-7-12-4h-8l-8-1-8 5-11 4-5 1-13-9-18-11-4 2-2 2-8 3-8 6-7 2-2 4-8 6h-2l-2 4-7 2-9 1-10-4-11-6h-5l-4 2v-79l5 2 20 14 5 5h14l11 5 5-1 4-4 12-6 9-2 17-9 5-4 10-5 4-3 9-3 10-7 12-8 5-2h6l16 7 12 5 15 7 6 4 7 6 5 4 16 4 5 2 12 3h7v-2l2-1 10-1h19l9 4 5 1 10-5 8 1 16 8 9 3 7 5 21 5 4 2 9 2v-2l4-1 1-4v5l4-1-1 3h3l1 3 3 1 3-4 3-6 7 1 2-5 1-3-2-1 4-2 1-4h2v4l3 1-3 1 3 3v2h2v3l6 3h2l1-6 6 3v-3l-6-3-1-4 1-3 6 2-1-2-4-2 1-9 4 1v-9h1v9l5-2 3 3v3h-2l-1 4-1 1h5l-1 3-2 2h2l-2 4h-2l-1 2h-2v3l6-3 9-3 8-2 1-5v-3l2 1-1 5 27-9 4-3 6 1 18 6 19 5 4 1 16 6 17 5v-2l3-2 10-1 2-4 3-1v-2l5-1v-2h-2v-2l8-3h6l6 4-3 1v2l5 1 2 6 3 2v2h5l2 1 19-9 6-3 16-9 11-3 1 1 7-1 18-10 10-3 11-6 8-6 5-3 5 1 9 6 16 7 13 4 9-1 5-3 6 1 10 4 6-1 11-6 6-4 8-3 9-2 14-7 7-3 10-5 14-5 10-6 13-8 14-8z"
          fill="#FC6B40"
        />
        <path
          transform="translate(1470,504)"
          d="m0 0h3l-1 5h3v3l3-1v3h-2v2h4v5h-2l2 2-3 5 3 2-4 2h-3v2h6v-2l3 1-2 3 6-2-4 4-3 2 8-1-5 6h4v2l-3 2 1 2 5-3h2v2l-5 5 5-1-4 5-3 3 6-3 1 4 4-1v3l5-5-3-1 3-3 2-6 3-6h2l1 13v3l2 2v-2h2l1-5h3l1-9 3-4-2-1h2l-1-3 2-5h1v7l2 4h-2l3 9-1 3 5 5v2l-4-1 1 3 8 7 5 4v2l4 2 8 5-1-7 2-4h1l1 6v-7l-4-2-5-3-1-4 5 3 3 1v2h3v-5l-4-1-2-3 5 1v-3l-6-5v-2l4 2v2l3-2v-2h-2l1-3 1-2h-2l-3-3 1-3 4 3-3-4 1-2 3 2-1-3 1-2-4-2 4-1 1-4v4l2 1-2 5 2 1-2 6h2v-2l4-1v5l-4 2v2h-2v5h2l1-3 4 2-5 4h-2v2l8-3 2-1-1-4 4-1v-2h-2l-1-4 8-1-4-2 2-8 3 1 4 3-2-4 6-1 1 3-1 2 2 6v2l1 4h-2v2l4-1-2 4-2 1 3 1v3l-2 6h5l-1 4 1 3-2 1 12-2 3 2 3-2 9-2v-2l1-4 2-1v2l3 1h3l9-7 9-2 2-1 9-1 10-5 16 1 4-2 17-1 5-3 6-5 10-6 8-7h2l1-3 5-4h6l18 12 6 3 16 4 12 5 1 1h11l2-4 3-1v3l3-3 3-6 3-1 6 1h8l12-2 4 4 16 3 14 4 8 2 4 10 2 3 21-7h3v18l-16 6-9 3-8 2-15 6-21 5-7 2-8 3-6 3h-6v2l-8 4h-8l-9-2h-7l-10 3-8 3-12 2-11 4-9 1-2 1h-8l-7-2h-12l-14 1-3 1h-16l-6-2h-8l-9 2-13 6h-4v2l-7 3-1 3-6 2-6 6-5 2-4 4-9 5h-2l-1 21-2 8-5 3-6 3h-2v2h-3l-1 8-1 4 1 4-4 10-5 6h-3l-1 3-11 5h-4v-10l2-2-2-4-4-2v-5-3l-1-6 2-3v-5h-2l-3-8-1-14-3-11-2-8-2-5-4 1-1 6-2 5-3 5-2 4-1 6-2 1-2 5v9l-3 4h-2l1 5-1 4 1 4-2 3h-2l1 5-3 7-4 4-1 10-5 15-2 1v-2h-2v-8h-18l-1-3 6-2 1-2h-6l1-4 3-2v-6h-9l-1-3 10-5-1-6-8-1 1-2 3-1 1-3h-7l1-4 2-2-1-2h2v-5l-5 1v-6l-5 1-3 9 4 1-1 1h-5v10l-3 1v10h2v2l-4 1-2-1 4 7 7 1 1 3h-11l-6-5-2-4v-3h-2l-3-5v-3h-3l2-4 2-1-1-5-4-7-1-7v-5l-1-3h-2l-2-15-4-7-1-11-4-7v-4h-2l1 5-5 9-2 9h-2v9l-2 4-1 13-5 9v10l-3 6-1 6-3 12-3 1-1 4-1 5-6-4-2-10-3-6v-2h-2v-2h-2l-2 6-3 5v8l-3 2-2 12-3 5-2 1v5l-5 1v-4l2-3-1-1-13-1v-3l4-2 6-12v-2l-10 1v-3l5-4 5-3h2v-3l-4 1h-9l2-11 4-5h-5v2l-5-1 1-4 3-1 1-3-2-1-1-7-3-1-2 4-1 1h-5v-2l-2 2v3h-6l-4-2h-2l1 10-4 3v2l7 2-1 2-9 2-1 2 8 2-1 3-4 3 5 2v3l-3 1h-10v4l8 4v3l-6 2v3l9 1 1 2-9 3 5 5 4 2-13-1-6 3-4-1 1-2v-15l-2-2-1-10-3-4-2-8-1-8 2-1-3-5v-4l3-1-2-5-3-8-1-8-3-3-4 10-3 7 1 12-3 6h-2l-1 7-3 5v5h-6l1-2v-7l2-3-6 3h-2v-4l4-2 1-3h-5v-5h-7l-3 9h2l4 5-3 3-3-1v-2l-6 3-2 2-2-3-1-7 2-4-2-7-3-16-3-4-1-5-5 5-3 5-2 9-2 4h-2l1 10h-2l-2 12 1 4-3 1-3-1v-2l-3-1-3-5 2-10-1-6-3-5-6-23-1-2-1-10-3-4h-2l-1 7-1 6-4 7-1 12-2 4-1 15-4 8-2 7-3 3 2 2 1 6-8 4-12-1-1-2h7v-2l-11-1-3-3 1-2 12 1-1-2-10-2-2-1 1-3 5-1 5 1 7-2v-7l2-2 4-1 1-2-4-1-1-2v-3l-4-3 2-5-17-1h-3l-3 4v6l-10 3-2 2h-7l2 2 7 2 3 4-3 3-5 1-1 3 20 1-4 4-5 2-16-1-3-1-1 3 7 2 6 2-1 3-5 2v1l11 2-2 3-3 1h-10l2 3 6 1-2 2-4 2h-3l2 3h11l-2 1v2l-18 2-4-2v-2l-4-2-2-3-1-7-3-1v-3l-4-2-2-7-7-5 1-7-6 3-1 7-3 3v6l-1 2-1 15-4 4-4-1v-2l-4-2-5-8-2-5v-3h-2l-1-4 3-2-2-3 1-4 2-1-5-5-1-3-3-1-1-7-2-3 1-6-2-4 1-3-6-7-4-12v-4l-1-5-3-1v-10l-3-6v-15l-1-4h-2l-1 4-2 4 1 9-5 12-1 9-1 2h-2v11l-5 12-4 6-1 1-1 18h-2l-2 5-2 6-2 13-3 2-2 14h-8l-1-5h-7l-4-2 4-4-3-1 1-3 7-1h-9l2-5h2l1-4-11-1v-2l9-3h3v-2l-10-1-1-2 2-3v-3l6-3-9-2v-2l4-1-1-2-5-1 5-4 5-3-1-1-7 1-3 1-4-4 2-3 6-3 2-4h-10l-2-1 2-4-2-3 5-3-4-3v-7h-2l-3-4 4-1 1 3h2v3h5l1 2 3 1v2h-4l-3-3-1 3 6 1 4 1 1 2h3v-3l-2-2 4-2 4 1 3 2-1 3-2-1v-2l-2 1 2 7-2 1 13 4 1-7h4l-1-4 2 1v3h2l2 4 5 1 1 2h2v-2h2v-7l1-5 1-9h4l2-8 1-2v-12l4-9-2-4 2-2 2-5h2l1 5 4 2-1 5 1 4 2 2-1 4 2 1-2 5h2v2h2l3 3 2-12 3-5v-7l4-2-3-2h3l-1-3h3l-4-5 5-1-1-7 1-5 2-31 1-4h-6l4-2 1-3h5v7l-1 4-1 36 3 1-2 3 3 1-1 2h2v-2h2l-1 4-2 2 4 1v2l2 1-6 2v2l5-1-2 4-2 1 3 2v2l4-1 1 3h5l-3-1-1-5 6 2v-2l-5-1v-5h2v2h9v-2h-7l-5-6 2-1 3 1v-2l-3-1 3-3h-2l1-2h4v-3l2-1-2-2h4v-3l4 2-1-3-2-2 2-1-11-9-3-4 4 2 6 5 5 3 6 3v-3l-5-1v-2l-4-2 2-1v-4l5 2-5-10 1-2 5 2v-3-2h2l-2-8h2l1-9h1l1 14-1 4 3-1v8h2l1 4-2 4h5l-4 4-5 2h3l3 1-1 2 7-2-1 3h-2l2 7 6 2v-2h-2v-5h2v-5l4-2-4-2v-3l2-1-1-3h-2l1-2 3 1-2-5 1-2 6 1v-2l-5-1-1-2 2-6 3 1-2-5 4-2 3 1v3h2l1 5-2 3 3-1v2l-4 3 6-2v4h-2l1 3-5 3 5-1h3l-5 5h4l-1 4-1 1 2 1-1 5-2 1h4l1 4h3v-2h2v-2l-2-1v-1-2h2v-5l1-3h2v-2l3-2h-5l2-1 1-5 3-1-3-1 1-5 3-4h-2l1-3 2-1-2-1v-3l2-1-2-2 3-3-1-4 4-1 1-3v6l3 1v3l3 1-4 1 6 2-1 3-3 2 3 2v4h-3v2l3 1v2l2 1v7h5v-2l-4-2 1-3h3l-4-5 5 1 6 2v-3l-8-1-1-7h4v2h4l1-3-7-1 2-2-2-1 1-3 4 2 8-1 1 4-5 1 1 3 4-2v2h2l1-3 3 1-1 7-4 1-6 1v3l8-4-2 5h-2l1 2 6-3-2 6-3 4 6-1-2 5 1 5 2-2-1-4 2-1v-9l3-10-1-3 4-5 2-11 2-1 3 10 3 5-2 1 3 4h-3l5 4-3 1 1 2-1 2h2v5l4 6h-3l4 7 2 5-4-1 4 7v3l3-3v-6h2l-1-3 2-6 4-9h2l5 18v10l2 3 2-2 1 4 6 1 2 1v-2h-3v-2h-3v-2l-3-1v-2h2v-3h2l1-2h2l-2-4 4 2v2h4l-6-4-1-5 8 6-5-5-2-4 2-1 1-2v-2-5l3 2 1 2 2-10 2 1-1 2 2 1-1 5 2 1v2l2 1-3 3-2 1v2l6-5 2 1-2 5-5 2-1 3 4-3 5 1-3 3-3 1v3h-4v2l10-2v5l1 4h2l1-7 2 1v7l5-1 2-10 1-1 2-9h2l5 12 1 3-2 2 2 4 3-1 4 1-3-4 6 1-3-4v-2h5l-4-3v-6l2-1 3 1-2-5 1-2h2l1-3v4l2 1v2h3l1 4-2 2 2 1v2l-3 2 4-1 1 3v2l1 3 6 1 5 4 2 1-1-6h-2l2-5-1-5 4-5h-2v-2l3-2-3-2 2-3 1-4 2-4-2-1 3-2 2-3v3h2l1 7 3 1-3 2 4 1-1 5v2l2 5-3 1 3 2-1 2h2l1 4 4 1v-5h4l-3-3v-2-3l5 1v-3l-4-1 2-4-1-4 9-1v2l-3 3 6-2v2h-2l-1 3-3 1 1 2h5l-2 1-1 3h3v2l-2 1 4 1-6 2v2h3v2l5-3v-10l2-3h2v-2l4-4v-10-3l7-2 2-6 2-2-4-1 3-5v-5-4l2-8 1-5 3-6 2-11h2l2 9 4 7v3h-2l3 6 1 9-1 4 2 2 1 5 4 2h7l3 3 8 1 4 1 1-12h1l1 15 11 5h4l1-15 2-4v20l15 1 7-1-4-10h4l-1-2 2-1-3-4v-2l6-2-4-1v-2h4l-4-2v-2h3l-1-3-2-1 1-4h2v-2l-2-1 10 2v-2l-7-1-2-2v-3h4l-3-2v-5l8 3-1-2-6-4 2-2h2l-1-2 3-3-2-5h3z"
          fill="#7A002F"
        />
        <path
          transform="translate(157,446)"
          d="m0 0h6l16 7 12 5 15 7 6 4 7 6 5 4 16 4 5 2 12 3h7v-2l2-1 10-1h19l9 4 5 1 10-5 8 1 16 8 9 3 7 5 21 5 4 2 9 2v-2l4-1 1-4v5l4-1-1 3h3l1 3 3 1 3-4 3-6 7 1 2-5 1-3-2-1 4-2 1-4h2v4l3 1-3 1 3 3v2h2v3l6 3h2l1-6 6 3v-3l-6-3-1-4 1-3 6 2-1-2-4-2 1-9 4 1v-9h1v9l5-2 3 3v3h-2l-1 4-1 1h5l-1 3-2 2h2l-2 4h-2l-1 2h-2v3l6-3 9-3 10-3 1 7 5 7h-2l1 10 2 2h-2v2h2l-1 5h2l3 6-3 2 5 6-1 3-3-1 4 6 3 4 2-5v-7l2-1 4-12 2-1 6 20v9l1 3 2-3 3 4h4l-7-6 3-2-1-3 4-1 1 4 2 1v-2h2v2h3v-2l-5-2-4-3v-2h2v2h3l-4-4v-3l3-1v-5l2-1-1-6h3l2 3 2-13 2 1v8l-1 4 5-1 1 4-4 2 5 3v2l-6 3-1 2 5-2 3 2-4 3v2l-5 1v3l9-4v3l-1 4-6 1v2l8-2-1 3-8 2-1 2 11-4 3 1-2 3-6 1 1 1h7l3 3 11 5 1 3-3 14v7l1 3 5 2 4 6 3 1 6-15 2-9h1l1 9 3 5h-2l2 6 2 7 2 5 3-4 1-4-1-2 3-10-2 5-1-4 4-12 2-15h3l3 6 2 7 1 4-4-3v2h2v2l4 2v2h-3l2 4 2 1 1 8-1 1 3 3 4-9v-4l1-2 1-9 3-3 4 15 3 8v3h2l1-5 1-3-2-1v-3l2-2-2-1 1-1-2-2h2l2-4-1-5 3-6v-2l-2-1 2-6 2-3 3-18h1l3 14 2 6h2l1 5v4l3 4h-2l3 4h-3l2 6 3 1-1 3 3 3-2 2 5 5-1 2-4-1v2l6 2 1 2-3 3 2 4 5 2 3-13v-9l3 1 2-4 2 8 3 9-1 4v5h2l1 6v2l4-2-1-7 3-2 2-9-1-2h2v-2h2l-1-7 1-2h2v-6l6-11-2-1 2-9 2 3 2 5 2 3h-4l2 6 3 1v2l-2 1 2 2 2 9 1 7v2h-2l3 5v3l-1 4h2l3-4v-16l2-2 3 13h4v-2h4l-5-4-1-4 7-1-5-4 5-1-5-3 4-5-4-1 2-8-2-1 5 1 8 2v-2h-6l-6-3 3-1v-2l-2-1h7l-6-3 1-2-2-4 5 2 6 1-8-4 2-4 3 1v-2l-2-1-1-4h3l2 1v-3l-3-1 1-4 2-1v-2h2l-1-4h2l1 9h2v4l3 1-3 3v3l6-3-2 7h2l-2 5-2 3 3 2-7 3-1 2 5-1 2 1v-3l4 1-3 3 7-1-5 5h-2l1 2 2-2h6l-2 3h-3l-1 3 5 1v2l-5 2 1 2-1 2 8-4h2l-1 3-4 1-1 4-9 3 6-1 8-4h2v2l-5 4-1 2-6 3 7-2h3l2 1h3l3 4 2-4h2l-1-4 1-6 2-1 4-10 2 4 1 9 1 3h-3l4 6v-3l4-2v-3l3-2 2-10 2-3-1-3h2l-1-3 2-6h1v7l2 3-1 5 2 6v7l5 5-1 2-3-1v4l5 2 1 4 1 3h2l1 2v-14l2-4 1 7 1-9-4-1-6-4 1-3 7 5 3 1-2-5-4-3v-2l4 1v2h2v-4l-4-2-4-4 4-1v3l4 1v-4l-3-1v-2l2-1v-2l-3-1-2-4 3 1 3 3-3-5 1-2 1 1v-4l-2-1v-2l5-2 2 1v2h-2l1 4 2 1 1 1v3l2-1v4l-5 6v4l6-2v2l-6 4-1 2 8-2 1-7h4v-2l-3-1 2-3 2 1v-2h2l1 2 2-3-5-1v-4l5-1-1-3 2-2-2-2 2-1 6-1v3l-2 1 3 2h-3l3 2v8l1 3h2l-2 4h3l-1 3-7 1v2l7-1v3h3v-3l2 1v-3l4 1-4-7 2-4 2 4-1-9h2l1-5 3 2 1 4 2-1 3 9 2 7v7l2-1-1-5h2v-7l2-3 1 11-1 7h3l3-6 2 3 3 6 2 10h-3v2l4 2 2 2-3 1 3 3h4l-1 3-3 3 3 3 2-13v-5l1 4h2l-1 5v7l1-4h2l1-5 2 1v2l7-1-2-2-5-1v-5l7 1-1-1-1-5-5-1v-5l4-1-2-3v-4l8 4-1-3-5-3 2-3 4 2 1-2h-3v-3h-3v-2l5 1 1-2h-3l1-2 2 1 2-17 5-47h-5l-1-1v-5l-12-3-1-13 5-1h16l-1-9-2-1v-2l-6-1-6-2v-2l14-6h3l1-8h2v5l27-9 4-1v-12l2-1 1 13 9 5 13 5 1 2 7 3 3 2v2l6 2 8 4v3l-2 1h-7l3 7 2 2h6l1 3v14h-5l1 3v7l-2-1v-9h-4v2h-2v3l2 1-5 1 2 36 1 4 1 23 1 14 2 15-1 1 1 4h2l2-2 1-7 4-7 2-17 2 1 3 11 1 7 1-5 2-1 4-15 3-17 2 2 2 7 2 19 6 1 2-19v-14l-1-2h4l-2 35-1 10v2l-4 2 3 2v2l-2 1 1 5-4 1v8l-2 2-2 5-1 7-1 2-3-1v-2h-2v-2h-2l1-5-4-12 1-4-4-4v-3l-2 1-2 5v4l1 2-4 8v12l-4 10h-4l1 6-1 3-1 10-1 2h-2l1 3-4-1v-2h-5l-2-2v-3h-2l-1-2v2l-3 2-2 5-10-2-4-2 2-2-2-7h3l2 2 1-2-4-2-4 1v5l-4 1-2-3h-7l-3-2 2-3 3 1v2h4v-2l-4-1v-2h-5v-3h-2l-3-4 4-2-5-6 2-3h2l1-2 2-2-7-3-3-5-5-1-3-2v3l4 1 1 4-2 6h2l-2 5-7 8-4 5 3-2h5l1 4-5 4-4 7-7-1-1-5 3-2h-6l-3 1v-19l1-15-1-3-1 5-2 24-1 9 2 3-2 6-4-4-6 3-6-2-1 5 5 1 1 4 1 3h-5v-3h-5v2l4 1v2h-8v3l-3 1-4-2-2-9v-4h-2l1-5-2-4v-9l-4 1-1-6-4-2 1-4 3-3-3-3-3-5v-2h3v-2l-2-1h3l-3-5 2-2-2-2-2-6 3-3-2-5 1-2-3-4-1 3h-2l-1 3-2-1v2h3v2l2 1-7 2-2 1v2h-2v3h5l-1 4 2 4-8 2 7 1v3l-5 2 2 5-3 1 5 2-2 5-1 7-5 1-1-3-6 3-8 7-4 2-4-1 6-4 1-2-6 1-1-4 5-4 9-6 1-3-4-1v-3h-3l-2 4-2 3-3-1 4-8 2-6h-2v-10l-2 9-3 3-1 11h-3l-5-10v9l-1 4v2h2l4 6v3l1 4h-3l-5-6-3-1v4h-6l-6-5-1-2-1-9-3-12-2-6-3 1-5 19v3l1 3-3 6h-2v11l-4 7-3-4v-6l-4-6-3-21-2 7-6 4-4-1-1-2 2-4-2-1v-3l-4 1 3 6-2 3-6-1 2 6 6 4-2 3-4-1v-2h-4l-4-5-2-1v-4l-3-1-3-13-5-9-1-4-1 3h-2l-2 8-1 6-1 4h2l-1 7-1 17-2 3h-2v3l-4-2 1-4-4-1v-2h-3l-2 4-2 7h-2l-1 6-4-2-2-3-5-19-2-18-4-7v-6l-2-3-1-6h-1l-3 12v2h-2l-1 12-6 12-3 3-7 1-2-2-2 3-9 1h-6l-2 5-1 1-12 2h-5l-6-10-3-2-18-1-9-4-3-3-2-7v-12l-3 2v12l-3 2h-17l-5-3v-6l2-4-2-11v-11l-2-6-1-6-2-4-3-16v-3l-3 3-3 10-1 2-2 19-2 9-1 16-3 3-5 2h-3l-1-5-5-5 1-4h2l-3-9-3-1-1-7-1-9-3 3-1 5-1 4-4 6-4 1 3 3-1 5-3-1-5-6-3-3-1-6-15-2-13-4-8-4-3-2-8-2v-2l-4-1-5-6-3-3-9-5-16-3h-7l-5 1-2-1-1-4-1-15-1 15-9-6-2-12-3-10v-3l-14-2-5-2-1-4-3-1-4-11h3l-6-15-3 9-2 2-2 5h2l-2 6-4 9-3 3-10 1-7 9-12 1-16 1-4 2-1 3-8 3-10-2-12 1-6-3-7-1-19 3h-6l-12-5-10-7-12-4h-8l-8-1-8 5-11 4-5 1-13-9-18-11-4 2-2 2-8 3-8 6-7 2-2 4-8 6h-2l-2 4-7 2-9 1-10-4-11-6h-5l-4 2v-79l5 2 20 14 5 5h14l11 5 5-1 4-4 12-6 9-2 17-9 5-4 10-5 4-3 9-3 10-7 12-8z"
          fill="#7A002F"
        />
        <path
          transform="translate(1845,533)"
          d="m0 0 5 1 2 3 16 3 14 4 8 2 4 10 2 3 21-7h3v18l-16 6-9 3-8 2-15 6-21 5-7 2-8 3-6 3h-6v2l-8 4h-8l-9-2h-7l-10 3-8 3-12 2-11 4-9 1-2 1h-8l-7-2h-12l-14 1-3 1h-16l-6-2h-8l-9 2-13 6h-4v2l-7 3-1 3-6 2-6 6-5 2-4 4-9 5h-2l-1 21-2 8-5 3-6 3h-2v2h-3l-1 8-1 4 1 4-4 10-5 6h-3l-1 3-11 5h-4v-10l2-2-2-4-4-2v-5-3l-1-6 2-3v-5h-2l-3-8-1-14-3-11-2-8-2-5-4 1-1 6-2 5-3 5-2 4-1 6-2 1-2 5v9l-3 4h-2l1 5-1 4 1 4-2 3h-2l1 5-3 7-4 4-1 10-5 15-2 1v-2h-2v-8h-18l-1-3 6-2 1-2h-6l1-4 3-2v-6h-9l-1-3 10-5-1-6-8-1 1-2 3-1 1-3h-7l1-4 2-2-1-2h2v-5l-5 1v-6l-5 1-3 9 4 1-1 1h-5v10l-3 1v10h2v2l-4 1-2-1 4 7 7 1 1 3h-11l-6-5-2-4v-3h-2l-3-5v-3h-3l2-4 2-1-1-5-4-7-1-7v-5l-1-3h-2l-2-15-4-7-1-11-4-7v-4h-2l1 5-5 9-2 9h-2v9l-2 4-1 13-5 9v10l-3 6-1 6-3 12-3 1-1 4-1 5-6-4-2-10-3-6v-2h-2v-2h-2l-2 6-3 5v8l-3 2-2 12-3 5-2 1v5l-5 1v-4l2-3-1-1-13-1v-3l4-2 6-12v-2l-10 1v-3l5-4 5-3h2v-3l-4 1h-9l2-11 4-5h-5v2l-5-1 1-4 3-1 1-3-2-1-1-7-3-1-2 4-1 1h-5v-2l-2 2v3h-6l-4-2h-2l1 10-4 3v2l7 2-1 2-9 2-1 2 8 2-1 3-4 3 5 2v3l-3 1h-10v4l8 4v3l-6 2v3l9 1 1 2-9 3 5 5 4 2-13-1-6 3-4-1 1-2v-15l-2-2-1-10-3-4-2-8-1-8 2-1-3-5v-4l3-1-2-5-3-8-1-8-3-3-4 10-3 7 1 12-3 6h-2l-1 7-3 5v5h-6l1-2v-7l2-3-6 3h-2v-4l4-2 1-3h-5v-5h-7l-3 9h2l4 5-3 3-3-1v-2l-6 3-2 2-2-3-1-7 2-4-2-7-3-16-3-4-1-5-5 5-3 5-2 9-2 4h-2l1 10h-2l-2 12 1 4-3 1-3-1v-2l-3-1-3-5 2-10-1-6-3-5-6-23-1-2-1-10-3-4h-2l-1 7-1 6-4 7-1 12-2 4-1 15-4 8-2 7-3 3 2 2 1 6-8 4-12-1-1-2h7v-2l-11-1-3-3 1-2 12 1-1-2-10-2-2-1 1-3 5-1 5 1 7-2v-7l2-2 4-1 1-2-4-1-1-2v-3l-4-3 2-5-17-1h-3l-3 4v6l-10 3-2 2h-7l2 2-4 1-7-3 1-10 14 4h5l-10-4-4-4 1-1h5l6 3-1-4-1-3-12-5-6-4v-5h2l1-2 7 4 3 3 8 1v-2l2-1-5-3-3-2v-2h6l-9-5-4-5v-2l4-1-1-6 2-1 12 6 4-4-5-2-2-6 6 2v-3l-6-3-2-2-1-7h4l3 4 7 2 1-4-3-5 1-3h2v-5l2-1 2 4 2 1v2h6v-2l4 1 1 11-4 2v3l3 1 1 4 2 2h3l-1 5 4 4-2 4-3 1-1 4 4 1-2 5-3 2v2h8l1 5v3l-3 1-2 3h7l-2 4-1 1 3 1v4l3-1 2-6 1-13 5-9-2-2 3-4 2-9h2l1-7 2 2 2 6 2 4h2l2-9 2-6h2l1-7-1-1v-6h2l1-9 1-4 3 1 3 7 3 14 1 5 5 10 2 16v5l2 2 3-9 2 2 3 10h3 3v2l7 3 9 1-1-2h-8v-2h-2v-2l-3-1 1-4 9 1v-2l-4-2-3-2-2-7 5 2 7 3v-2h-2l-4-4-1-3v-9l5-2h3l-1-3 5-2v-2l-3-1 1-4 2-2-5-2-1-4 3-2-2-2 5-1 1-3 6 2-2 4h-2v2h9l-4 7 2 5 3 4-2 10-9 1v2h6l2 2v3h2v2h-2l2 5 3 1v4l-6 3 5 3v4 2l2 2 5-12 4-8 2 2v3h2l2-5 3-3 2-5 6-21 1-9 2-3h2l2 9 1 10h2l2 15 1 3 4-2v-1h6l2 1v2l5 2 2 1-1-8 5-5 1-9-2-4 4-5 2-7 2-3h-2l1-6 2-3v-8l3-2 3 3v3l2 1 1 11 3 5v2l-4 1 1 2 5 2-1 7 3 3-1 5 1 3 1 8 1 2-2 2-1 2 6 1 2 4h3l1-7 3-3 2-10h2l2-13 3-7 2-5 3-14 2-3 2-13 4-2 1 5 1 9 2 8 3 11 4 8 1 11 2 5h2l2 4 2-3 1-8 4-7v-7l1-3 1-6 2-1 4 7v8l4 9 1 8 2 1 5-3 4-7 6-2 8-4 5-2 6-6 7-2h5l2-16 2-11v-12l6-12 2-1 6 12 2 14 3 9 1 1v7l2-1 2-6 4 1 4 15v8l4 12v2l10 2h2l-1-5 2-3h2l1-6 1-8 2 1 2 13 4 7 2 2-2 2 1 4h11l3-8 4-5 12-7 3-1v-2h2v-7l3-9 3-13 2-5h2l2 4 2 12 3 6 5 1 6-2 1-3 13-6h2v-2l9-5 11-6 8-4 8-3 6-3 7-5h9l12-2 3-4h10l3 3 11 4 3 2 10 1 22-6 4-4h2v-2l18-4 9-1 7-9h2l2-4 9-9 4 1 2 3 1-3h2l3-9h2l1-3 14-1z"
          fill="#4E012E"
        />
        <path
          transform="translate(326,500)"
          d="m0 0h1l4 15 2 5h-3l4 10h3l2 6 13 1 4 2 5 16 1 9 7 5 1-25h1l2 30h6l1-1h9l14 3 10 6v2l3 1 5 6 3 1v2l10 2 4 3 10 4 20 4 3 1 2 8 4 2 3 3v2h3l1-4-3-1v-2l5-3 3-5v-6l3-5h2l2 4v11l-5-3-3 11-2 6-3 8-2 2 3 2v2l-3 1 1 4-1 1h-9v2h2v2l4 2 5 2 1 2-6 3h-7l-2-1 4 5 5 1v2l-5 2 7 3v1l-12 1 8 7v2l-8 4v2l4 4-6 2 3 5-1 5 2 2v6l2 1-2 1h-11l-8-4-3-5-2-1-1-5-4-2-7-5-3-4v-2h-28l-13-3-4-3v-6l-1-2-1-16-1-5-2 1-3 5-3 8-3 10-1 1-7-1-4-3-2-8-3-5-1-3h-7l-2-1-12-2-5-4v-2h-2l-1 3-4-1-10-4-12-3-1-1-12-1-8-5-9-2-3-1v-2l-6-2-19-2-6-2-6-1-30-1-10-2-5-2v-2l-4-1-10-4-9 2-17 4-7 2h-9l-1-3-3-1-4-4v-3h-2l-4-6v-2h-2l-1-8h-15l-6-7-5-5-7-9-2-4-6 1v2l-6 1h-16v2l-4 3h-2l-1 4-7 12h-2l-1 5-3 1v2l-6 2-9 6h-2l-2 4-6 8-3 1v-68l4-3h5l17 9 8 1 11-2 5-5 5-4 7-6 8-4 9-6 5-2 3-3 6 2 20 13 7 5 5-1 13-5 6-4 16 1 12 4 14 9 8 3 12-1 15-2 6 2 5 2 13-1 9 2 4-2h4l1-4 4-2 16-1 12-1 7-9 12-1 3-9 3-7-2-1 3-6 3-5z"
          fill="#4E012E"
        />
        <path
          transform="translate(157,446)"
          d="m0 0h6l16 7 12 5 15 7 6 4 7 6 5 4 16 4 5 2 12 3h7v-2l2-1 10-1h19l9 4 5 1 10-5 8 1 16 8 9 3 7 5 21 5 4 2 9 2v-2l4-1 1-4v5l4-1-1 3h3l-1 3v-2l-6 4h-3v-2h-2v6l-1 2 5 1 1 3h-5l4 3-1 2h-1v2h-3l1 4h-2l3 3 2 1v2h-5l-1 2 3 1h-3l-2 7h2v2h-2v2h2l1 5-4 2h-4v2l6 2v1l-5 1 3 3h-6l-2 3-5-1-1-4-1-15-1 15-9-6-2-12-3-10v-3l-14-2-5-2-1-4-3-1-4-11h3l-6-15-3 9-2 2-2 5h2l-2 6-4 9-3 3-10 1-7 9-12 1-16 1-4 2-1 3-8 3-10-2-12 1-6-3-7-1-19 3h-6l-12-5-10-7-12-4h-8l-8-1-8 5-11 4-5 1-13-9-18-11-4 2-2 2-8 3-8 6-7 2-2 4-8 6h-2l-2 4-7 2-9 1-10-4-11-6h-5l-4 2v-79l5 2 20 14 5 5h14l11 5 5-1 4-4 12-6 9-2 17-9 5-4 10-5 4-3 9-3 10-7 12-8z"
          fill="#FB563D"
        />
        <path
          transform="translate(1197,488)"
          d="m0 0 5 1 4-1v2l6 1 7 7 9 3 2 2h2l2 9h7l9-1h9l4-3 14-3 8-4 5-3h3v-4h2l3 12 2 6v6l-1 2 3-2 4 1 5 3 7 8 5 3 1-8 2-5-1-4 2-3 3-9 3 4 2 3-1 6h2l1 10 2 2 5 1v-2l4-2h17l3-2 10-1-2 7-2 3-1 6-2 7 2 1-1 3-1 4-2 4 4 1-3 3-2 5-7 3 1 2v10l-3 4h-2v2h-2l-1 4v9l-3 3h-3v-2h-3v-2l4-2-4-1 4-1-5-1 3-4-5-1 1-3 3-1 1-2h2v-2l-5 3-2-1 2-3h2v-2l-7 2-2-1v3l2 1-3 4 4 1v3l-5-1 1 3 4 2-3 1 2 3-5-1v5l-5-1v-4h-2v-2l-3-2 1-2h2l-3-6 2-1 1-4-5-1 3-2-4-4 1-4-4 1-2 1 1 3-2 3v4h-2v2l3 2-4 2 4 2h-2l-2 4-2 5 4 1-3 1-2 4h2l1 6-5-2v-2l-11-1 2-3-2-2v-3l-5 1 3-3h2v-2l-3-1 2-3v-3l-5 2 1-4-4-2 1 7h-4v6l4 4-6-1 3 4v2h-5l3 3-3 1-5-1-3-5 2-2-5-11v-3h-2l-1 9-2 5-2 7-6 1v-8l-2 6h-2v-3l-2-1-1-4-8 1v-2l4-1-2-2 7-3-4-1-4 2 1-4 5-2 1-4-5 4h-2v-4l3-3v-2l-3-1 1-5-2-4v8h-2l1 4-4-3 1 6h-2l-2 3 7 6-1 2-7-6 1 4 6 4-2 1-3-1v-2h-3l3 4-4-1-2 2-1 3-2-1 3 3v2h3v2h3v2l-8-2-1-2h-3l-2-4v-9l-4-14v-4h-2l-1 5-3 5-1 8h-2l1 6-2 3h-2l-3-6-2-5 4 1-4-7-1-4 2-1-4-5 1-5h-2l-1-5h3l-5-5h3l-3-3 1-2-2-4-3-9-3 13-3 3 1 4-3 9-1 9-1 4v3h-2l-2-7 2-2h-5l2-4 1-4-6 2 1-3h2v-3l-6 2v-3l8-3 2 1-1-6-1-1-1 2-3-1-5 2 1-4 5-1-2-3-7 1-4-2-1 2 4 2-1 1 4 1-1 4-4-1v-2l-3 1 1 4-1 2 8 1v3l-6-1h-3l4 4h-5l-1 2 7 2-2 3-6-1v-7l-3-1v-2l-2-1v-2h3v-4l-4-2 5-5-8-2 3-1h2l-2-1-1-3-2-1-1-3-3 2v4l-2 2 2 3h-3v3l3 1-4 4h2l-2 4-2 5 4 1-4 1-1 5h5l-3 3h-2l-3 10-1 1 3 1-2 2v2h-2v2h-3l-1-4-9 1 4-2 3-1 1-4-3-1 3-5-5 1 2-4 1-1-7 2v-2l6-3 1-6-7 2 4-4-1-1 1-7-4 1v-2h2v-3h-5v3 4h-3l-1 5 5 2v2h-5l-1 2 3 2h-2l2 4-5-2 1 1 2 5-3-1v3l6 2v1l-5 1-1 2 2 1h-2l-2 7h2v2l-6-1-2-2v-6l2-2-6 1v-2l-5 1v-2l7-5h-5l3-5v-4h-2l-1-6-3 1 1-13-2 3-2-1 2 3v5h-2l2 7-1 4-1-6-4 1 2 5 1 4-5-2 1 5-1 1 2 1v2l5 1v3l-6-2-9-6-4-3 10 9 3 3v2 3l-4-1 1 3h-3l5 1v1h-7v3l-5 2h2l-1 2-1 1 2 1v2h-4v2l3 1 1 2 7 1v2l-4 1-5-1v-2h-2v3l2 1 3 2v2l-5-1v4l4 1-4 1-4-3h-3v-2l-4-2 4-4h-4l-1-3 5-2v-2h-9v-1l6-2 2-4h-2v2h-2v-2l-2-1 1-3-3-3 1-34 1-10-4-1-1 4-2 1 2 2v14l-2 19-5 1-3-2-2-19-2-7-2 7-3 16-3 8h-2l1 5h-2l-2-7-3-11-2 16-5 9v5l-5 4-1-5-1-2h2l-2-8-1-12-1-9-1-26-1-1-2-36 4-2v-3h2v-2h4l1 9 3 2 6 15h2l3 5 7 6 6 3 2-9h3v4l6-4h6l1 2 6-1 8 7v9l2-2-1-2 2-7 2-4h2v-3l3-3 1-3 6-3 1-2 3-1 3-7h4l1-6 7 1 2-1 1 1 4-2 1-3h3v-2l-2-1 5-2 16-2 5-2 1 3 2-2h15l9 3v2l17 1h2 4l3-10 4-9 5-1z"
          fill="#EE4239"
        />
        <path
          transform="translate(526,573)"
          d="m0 0h2l4 19 3 7 1 7 1 2v12l2 10-2 4v6l4 2h17l2-1v-12l4-2 2 16 3 5 9 4 18 1 5 4 4 8 9-1 8-1 3-5 6-1h9l1-6 3 4 7-1 6-9 2-5 2-12h2l-1-3 3-11h3l2 7 1 3 1 7 3 5 2 18 6 21 4 3 1-6h2l1-7 3-4h3l1 2 3 1 1 5 2 1v-3l3-3 1-17 2-7h-2l1-12 3-7 4-3 3 9 3 5 2 8 1 5 2 1v4l4 2 2 4h4v2l5-1-6-5-1-6h6l1-3-3-3 3-3h2v3l3 1-2 1 1 5 4-1 5-2 1-9 2 2 3 21 4 6v6l2 3 3-6 1-11h2l2-8-2-3 3-8 3-12 4-1 4 9 2 9 1 9 5 5 7 2v-4l4 1 5 6 1-1-1-4v-2l-3-4v-2h-2l-1-5 1-1v-9l2-1 4 9 2 2 1-11 2-3h2l1-9 2-1-1 11h2v5l-5 8 2 1 4-6h3l1 3 3 1-1 4-12 8-1 4h6l-2 4-3 2 6-2 9-8 5-1 1 2h4l1-9 2-2-5-3 3-2-2-4 5-3v-1l-7-1 1-2 6-1-1-4 2-4h-5v-3h2l-1-3 6-2h3l-1-3h-3v-2h2l1-2h2l-1-4 4-2v4l2 4v3 4l-2 1 2 2-2 1 3 3 1 4-2 2 2 4-1 3h-3l4 7 3 4-4 3-1 3 5 2v6l5-2v12l2 2-2 5h2l2 9v4l7 1v-3h8v-2l-6-1 2-3h6l-1 4h5l-3-4 1-3-5-1 1-5 7 1 5-3 3 3 2-4-2-2v-7l2-11 1-16 2-6 2 4-1 15-1 19 4-2h5l1 2-3 1v4l7 1 5-8 3-3v-3l-8 2 2-4 5-6 4-4 2-4h-2l1-7-1-3-3-1v-3l9 3 2 4 3 2 5 1-3 4-4 4 4 4-1 4-4-1-2-8-5 3-3 7v3h3l-2 12-5 4-1 2 6 1v5h-4l-1 3h-2l1 7-2 6-6 2 1 4-1 2 9 2-1 2-3 1-1 5h-2l2 3v5l-5 5v6l-2 3 6 3-2 4-1 1h-8l-2-4v-3l-8-2v-2l-4-2h-3l-3 6-5 1-3-2-1-10-1-6h-2v-8l-4-8-1-10-3-8v-6l-3-3-4 8-2 17-6 18-2 13-4 8-2 5-3 2h-5l-2-4-5-3 1-3 3-1-1-5 5-2v-2h-16v-4h7 4l3-4h-12l3-2 10-3-2-2-7-3 3-3 6-3 1-1-8-1-1-2-7-2-1-3 8-1-7-3 4-3h7v-4h-14l-1-4 7-1v-2l-4-2 1-4v-3-2l-8 1-2-3-6-2-4-2-1 6h-2l4 5 5 4-4 2-9-3v3l5 2-3 6 5 2v2h-9l-5-1v5l5 1 3 3 8 1-1 2-8 1-7-2 1 4 5 4-1 4 3 2-2 1 5 3 1 3h-16v2l4 2-1 10-2 2h-5l-4-4-2-12-2-3-1-10-4-7-2-13-2-4-1-9-1-2v-8h-2l-3-8-1-7-2 3-4 12v9l-4 9-3 14-1 1-1 11-5 8-1 5 4 3-1 4-4 4-3 4-2 6h-2v2h-2v2l-10 1-4-2v-1h7v-2h2v-3h2l2-5-5-1 1-8-4-1v-10h2v-2h-6l1-5h-6l-4 1v6l4 1-1 4-5 1-2 6-4 3 2 4 2 1v2h4v4l-7 1-2 3 1 5-8 6h-11l-4-1-5-15-3-5v-6l-3-3v-10l-4-8-1-3 1-8h-2l-3-9-5-10-4-13-3-3-4 9-1 10h-2v8l-2 16-5 6-10 4-6-1 7-7 1-2h-3v2l-17 4-7-3-1-3h-5l-3 3-3-1-4-6v-4h2l-2-3-2-9-4-10-2-10-1-11-3-10-3 2-1 3h-2l1 8-3 16-4 8v8l-3 8-2 8-5 1-3-3-3-6h-2l-2 5-8 3h-2v5l-4 2-7-1-2-5 4-2-1-5 3-2-3-2 1-4h-4v-2l-2-1 2-3h2l1-2h4v-2l-6 1-3-3-1-6h5l1-6-5-2-3-3-1-5 1-5-1-2-5-3v-3l6-1 1-3-6-2-2-4 4-2-5-4v-5h3l-2-9 3 1 2 9h-2l1 5 5 5-1 4 10-3 1-21 3-12 1-13 3-8z"
          fill="#4E022D"
        />
        <path
          transform="translate(1727,477)"
          d="m0 0 27 3 9 6 6 3 12 2 9 4 5 1h8l27-9 1-1h6l8 4 16 4 11 1 7-2 10-4 5 1 6 4 9 3 8 2 3 2v51l-17 6-7 2-4-6-2-7-15-4-7-2-16-3-4-4-12 2h-8l-9-1-2 6-2 3h-2v-3l-5 5-3 1h-8l-9-4-11-4-12-3-10-7-10-6-1-1h-8l-1 3-5 4-11 9-10 6-5 5-3 1-17 1-4 2h-8l-8-1-10 5-9 1-5 2-7 2-9 7-3-1-3-3-2 4 2 1-5 3-8 1-1 2-5-2-10 2-1-2h3v-2l-2-1v-3l-3-1 1-5v-3l-2-1-3-1 5-2v-2h-2v-2h2l-3-6-1-7v-3l-4 1 1 3-6-2v2l-2 1v3l7 2v1h-7l-4 1v3h2v2l-3 1 1 2-2 4-9 2v-2l5-4-2-1-1 2h-2v-5h2v-2l3-2 1-5-4 1v2h-2l1-6-1-5v-2l-4 1 3 2v5h-3l3 5-2 1-3-4-1 2 3 1v2h2l-1 4 1 1 1 3-4 1-4-4 4 5 3 2-1 4h-3l4 2v5h-3v-2l-5-1-2-1v2l5 2 5 3v7l-2 2-1-7-1 5v5l-5-2-7-5v-2l-4-2-7-7-3-2v-3l4 1v-2l-4-2-2-4 1-3-2-5v-3h2l-3-5v-5l-1 10-2 2-2 9h-3l-1 5h-2v2l2 1-4-1-2-4 1-3v-11h-2l-2 9-2 2-2 4v4l-4 2-1-2h-3l-2-3-5 3-4-1 5-2v-2l4-3-4 2-4-1 5-2v-2l5-2v-2l-7 4-3-1h2l-1-3 4-1v-2h-4l2-4 2-1-8 1 5-5-3 1-3-1 4-3-2-1v2h-6v-2l5-2-2-2 3-5-3-2 3-1v-5l7-3 9-3 2-3 8-3 1-1h5l5 3h18l15 6 10 2 12-5 13-5 5-3h7l8 3 9-1 8-3 19-2 17-8h28l9-4h13l13-4z"
          fill="#FC6B40"
        />
        <path
          transform="translate(954,412)"
          d="m0 0 5 1 14 9 22 12 13 8 6 4 12 6 9 2 10 6 26 10 12 6 10 3h2v-2h-2v-2h-2v-2l4 2 5 5 2-4 3-1-4 8 11 2 9 3 12 2 11 1 11 4 11 1 23-13 15-9 10 1 2 1v-2l15-9 7-3 10-3 15 1 1 4 7 1 10 13 1 1h8l14-5h5l4 6 9 6v2l15 1 29 15 3 2 15 3h16l4-4 10-4 6-3 10-9 6-5h7l12 2 2 2 1 8 8 1 18 8 6 3h6l-1 2-11 4-5 2h-3v-2h2l-1-2h-2v-3h-3l-1-4v3l-2 1 2 5h-3l1 4 2 2-5-1 5 5v2l-6-1-1 1v2l7 2v1h-8l1 3 7 2v2l-8-1v4h-3v2l3 1v3h-3v2l4 1 2 2-6-1v2l4 1-1 2-2-1-1 2-2-1 4 7-2 1 6 1v1h-9l3 9-9 2-13-2-1-5v-11l-1 15-5 1-12-6-1-3-4 1-1-1-8-1-1-3h-9l-5-3-2-6-1-4 1-5-2-6-1-5h2l-6-13v-6h-2l-1 9-5 2h-6l-2 2h-17l-4 1v2h-5l-3-3-1-8 1-2h-2v-6l-4-6-3 10-1 3 1 3-2 4-1 9-8-5-7-8-4-2-6 1v-8l-3-8-1-10h-2v4l-16 8-14 3-4 3h-15l-8 1-2-1-2-5v-4l-3 1-2-3-9-2-4-6-8-3v-2l-5 2v-2h-4l-1 6-6 2-6 16-1 2-6 2v-2h-9l-8-1v-2l-9-2h-12l-2-1-1 2-3 1v-4h-2l-1 3h-2l-16 2-3 2v2h-3l-1 4-3 1-1 2-2-1h-3l-3 2v-4h-2v6l-3 2v-2h-2l-2 7-4 1-1 3-3 2h-3l-1 5-3 1v3h-2l-2 9v3l-4 4v-10l-6-4-1-2-6 1-1-3-7 2-5 2v-4h-3l-1 10-5-2-8-6-4-4v-3h-2l-8-16-1-10h5l-1-14-1-2h-5l-5-6v-4l9-1-1-3-9-4-4-2-3-3-8-4v-2l-9-3-10-4-4-3v-17l3-1 1 3 10 5-6-18-2-7-3-5-1-4z"
          fill="#FB7A49"
        />
        <path
          transform="translate(956,447)"
          d="m0 0h1l1 13 9 5 13 5 1 2 7 3 3 2v2l6 2 8 4v3l-2 1h-7l3 7 2 2h6l1 3v14h-5l1 3v7l-2-1v-9h-4v2h-2v3l2 1-5 1 2 36 1 4 1 23 1 14 2 15-1 1 1 4h2l2-2 1-7 4-7 2-17 2 1 3 11 1 7 1-5 2-1 4-15 3-17 2 2 2 7 2 19 6 1 2-19v-14l-1-2h4l-2 35-1 10v2l-4 2 3 2v2l-2 1 1 5-4 1v8l-2 2-2 5-1 7-1 2-3-1v-2h-2v-2h-2l1-5-4-12 1-4-4-4v-3l-2 1-2 5v4l1 2-4 8v12l-4 10h-4l1 6-1 3-1 10-1 2h-2l1 3-4-1v-2h-5l-2-2v-3h-2l-1-2v2l-3 2-2 5-10-2-4-2 2-2-2-7h3l2 2 1-2-4-2-4 1v5l-4 1-2-3h-7l-3-2 2-3 3 1v2h4v-2l-4-1v-2h-5v-3h-2l-3-4 4-2-5-6 2-3h2l1-2 2-2-7-3-3-5-5-1-3-2v3l4 1 1 4-2 6h2l-2 5-7 8-4 5 3-2h5l1 4-5 4-4 7-7-1-1-5 3-2h-6l-3 1v-19l1-15-1-3-1 5-2 24-1 9 2 3-2 6-4-4-6 3-6-2-1 5 5 1 1 4 1 3h-5v-3h-5v2l4 1v2h-8v3l-3 1-4-2-2-9v-4h-2l1-5-2-4v-9l-4 1-1-6-4-2 1-4 3-3-3-3-3-5v-2h3v-2l-2-1h3l-3-5 2-2-2-2-2-6 3-3-2-5 1-2-1-4 6-4 1-3-3-1 1-4-2-1h-2l-3 2 3-10-3 1-1-10h3l1 4 2-1 3 9 2 7v7l2-1-1-5h2v-7l2-3 1 11-1 7h3l3-6 2 3 3 6 2 10h-3v2l4 2 2 2-3 1 3 3h4l-1 3-3 3 3 3 2-13v-5l1 4h2l-1 5v7l1-4h2l1-5 2 1v2l7-1-2-2-5-1v-5l7 1-1-1-1-5-5-1v-5l4-1-2-3v-4l8 4-1-3-5-3 2-3 4 2 1-2h-3v-3h-3v-2l5 1 1-2h-3l1-2 2 1 2-17 5-47h-5l-1-1v-5l-12-3-1-13 5-1h16l-1-9-2-1v-2l-6-1-6-2v-2l14-6h3l1-8h2v5l27-9 4-1v-12z"
          fill="#7E022F"
        />
        <path
          transform="translate(1390,591)"
          d="m0 0 2 2v7l3 13 3 11 4 8 1 11 2 5h2l2 4 2-1v9l-2 4-1 13-5 9v10l-3 6-1 6-3 12-3 1-1 4-1 5-6-4-2-10-3-6v-2h-2v-2h-2l-2 6-3 5v8l-3 2-2 12-3 5-2 1v5l-5 1v-4l2-3-1-1-13-1v-3l4-2 6-12v-2l-10 1v-3l5-4 5-3h2v-3l-4 1h-9l2-11 4-5h-5v2l-5-1 1-4 3-1 1-3-2-1-1-7-3-1-2 4-1 1h-5v-2l-2 2v3h-6l-4-2h-2l1 10-4 3v2l7 2-1 2-9 2-1 2 8 2-1 3-4 3 5 2v3l-3 1h-10v4l8 4v3l-6 2v3l9 1 1 2-9 3 5 5 4 2-13-1-6 3-4-1 1-2v-15l-2-2-1-10-3-4-2-8-1-8 2-1-3-5v-4l3-1-2-5-3-8-1-8-3-3-4 10-3 7 1 12-3 6h-2l-1 7-3 5v5h-6l1-2v-7l2-3-6 3h-2v-4l4-2 1-3h-5v-5h-7l-3 9h2l4 5-3 3-3-1v-2l-6 3-2 2-2-3-1-7 2-4-2-7-3-16-3-4-1-5-5 5-3 5-2 9-2 4h-2l1 10h-2l-2 12 1 4-3 1-3-1v-2l-3-1-3-5 2-10-1-6-3-5-6-23-1-2-1-10-3-4h-2l-1 7-1 6-4 7-1 12-2 4-1 15-4 8-2 7-3 3 2 2 1 6-8 4-12-1-1-2h7v-2l-11-1-3-3 1-2 12 1-1-2-10-2-2-1 1-3 5-1 5 1 7-2v-7l2-2 4-1 1-2-4-1-1-2v-3l-4-3 2-5-17-1h-3l-3 4v6l-10 3-2 2h-7l2 2-4 1-7-3 1-10 14 4h5l-10-4-4-4 1-1h5l6 3-1-4-1-3-12-5-6-4v-5h2l1-2 7 4 3 3 8 1v-2l2-1-5-3-3-2v-2h6l-9-5-4-5v-2l4-1-1-6 2-1 12 6 4-4-5-2-2-6 6 2v-3l-6-3-2-2-1-7h4l3 4 7 2 1-4-3-5 1-3h2v-5l2-1 2 4 2 1v2h6v-2l4 1 1 11-4 2v3l3 1 1 4 2 2h3l-1 5 4 4-2 4-3 1-1 4 4 1-2 5-3 2v2h8l1 5v3l-3 1-2 3h7l-2 4-1 1 3 1v4l3-1 2-6 1-13 5-9-2-2 3-4 2-9h2l1-7 2 2 2 6 2 4h2l2-9 2-6h2l1-7-1-1v-6h2l1-9 1-4 3 1 3 7 3 14 1 5 5 10 2 16v5l2 2 3-9 2 2 3 10h3 3v2l7 3 9 1-1-2h-8v-2h-2v-2l-3-1 1-4 9 1v-2l-4-2-3-2-2-7 5 2 7 3v-2h-2l-4-4-1-3v-9l5-2h3l-1-3 5-2v-2l-3-1 1-4 2-2-5-2-1-4 3-2-2-2 5-1 1-3 6 2-2 4h-2v2h9l-4 7 2 5 3 4-2 10-9 1v2h6l2 2v3h2v2h-2l2 5 3 1v4l-6 3 5 3v4 2l2 2 5-12 4-8 2 2v3h2l2-5 3-3 2-5 6-21 1-9 2-3h2l2 9 1 10h2l2 15 1 3 4-2v-1h6l2 1v2l5 2 2 1-1-8 5-5 1-9-2-4 4-5 2-7 2-3h-2l1-6 2-3v-8l3-2 3 3v3l2 1 1 11 3 5v2l-4 1 1 2 5 2-1 7 3 3-1 5 1 3 1 8 1 2-2 2-1 2 6 1 2 4h3l1-7 3-3 2-10h2l2-13 3-7 2-5 3-14 2-3 2-13z"
          fill="#4D022D"
        />
        <path
          transform="translate(704,506)"
          d="m0 0h16v2l10 3 14 2v2l3 1 4 5 9 4 8 1 3-2 7 1v-2l3-1 4 5 12 2h3 2l2 14 3 9h3l2-3 2 5 3-2 3-11 2 3 2 4 2 14 2 5 5-1v3l-2 5-4-1v4l6-1-1 4-3 2v-3h-2v2l-3 1 2 4h-4l1 3-2 4-5 2h-3l2-4 5-2-1-1-6 2v-5l5-5v-3l-3-1 1-2-2-1-1-1-1-2 1-3h2v-2l-7 1v2l3 1v5h-2l2 5-3-1-1-1 4 5-2 3 2 1v4l-4-1v-3l-3 1 1 3 6 3v4h-2v-2l-4-1 6 6v4l-4-1-6-4 1 3 8 4v10l-2-1-1-3v14l-2 3v-5h-2l-3-5v-2l-4-2v-4l4-1-4-2-2-3v-7l-2-9v-3l-1-6-1 6h-2v2l2 1-2 3-2 10-4 2-1 5-2 1v3l-5-5v-2l2-1-1-5-2-9-4 10h-2l1 3-1 7h-2l-1 5-4-4-5 1v-2h-2l-1 2v-3l-5 3-3-1 4-3 3-1-1-2 5-3h2v-2l-10 5-7 1 1-2 9-3 1-3 4-2 1-2-7 4h-3l-1-4 6-2v-2l-3 1-3-2 2-3 3-2-10 2 3-1v-2l6-4-7 1 3-4-3-1v3h-7l1-3 6-2-3-2 5-8-3 1v-4l2-3-5 2-1-4 3-2-2-1v-4l-3 1v-10h-2l1 4h-2l1 5-1-2-2 1v3l2 1v3l-4-1-1 3 2 1 1 3h-3l-1 3 7 3 1 2-7-1-3-1 1 3-1 1 6 3-4 1h-2l-1 3 4 2 6 1v2l-8-1-3-1v2l2 1-3 2-1 3 4 1-2 4-1 1 5 3-3 1-1 1 4 4-6 1-2-1 4 6 3 3-5-1v2h7l1 2-12-1-2-7-2-5v16l-3 5-2 1-2-2 1-4-1-3v-2l-1-3h2l-4-18-2-3h3v-2l-4-1-2-4 1-4v2l3-1-3-3-1-4-2 6v4l-4 8-1 6h-2v9h-2v4l-2 9-4 2v2l2 1-1 5-2 2-3-3v-6h-2l-1-8 1-3-4-9-2 1-1-3-2-1 1 9-3 11-1 2-6-2-2-5 3-3-6-3v-2l4-1-5-5 1-2 1-1-3-3 1-2-4-4 1-4-3-7v-4-5h-2l-4-9-1-9 2 3 3-9 4-11h1l1 11 3 11 2-5h2l3 5v3h2l-1-4 2-8 4-10 1-10 4 4h10v-2l3-2 3-6h6v-6l7-5 4-1z"
          fill="#FB563C"
        />
        <path
          transform="translate(733,540)"
          d="m0 0h2l1 9h2v4l3 1-3 3v3l6-3-2 7h2l-2 5-2 3 3 2-7 3-1 2 5-1 2 1v-3l4 1-3 3 7-1-5 5h-2l1 2 2-2h6l-2 3h-3l-1 3 5 1v2l-5 2 1 2-1 2 8-4h2l-1 3-4 1-1 4-9 3 6-1 8-4h2v2l-5 4-1 2-6 3 7-2h3l2 1h3l3 4 2-4h2l-1-4 1-6 2-1 4-10 2 4 1 9 1 3h-3l4 6v-3l4-2v-3l3-2 2-10 2-3-1-3h2l-1-3 2-6h1v7l2 3-1 5 2 6v7l5 5-1 2-3-1v4l5 2 1 4 1 3h2l1 2v-14l2-4 1 7 1-9-4-1-6-4 1-3 7 5 3 1-2-5-4-3v-2l4 1v2h2v-4l-4-2-4-4 4-1v3l4 1v-4l-3-1v-2l2-1v-2l-3-1-2-4 3 1 3 3-3-5 1-2 1 1v-4l-2-1v-2l5-2 2 1v2h-2l1 4 2 1 1 1v3l2-1v4l-5 6v4l6-2v2l-6 4-1 2 8-2 1-7h4v-2l-3-1 2-3 2 1v-2h2l1 2 2-3-5-1v-4l5-1-1-3 2-2-2-2 2-1 6-1v3l-2 1 3 2h-3l3 2v8l1 3h2l-2 4h3l-1 3-7 1v2l7-1v3h3v-3l2 1v-3l4 1-4-7 2-4 2 4-1-9h2l1-5 1 4 1 7h2l-1 5v3l3-2 2 5v2l2 1-1 4-6 4-2-1-1 3h-2l-1 3-2-1v2h3v2l2 1-7 2-2 1v2h-2v3h5l-1 4 2 4-8 2 7 1v3l-5 2 2 5-3 1 5 2-2 5-1 7-5 1-1-3-6 3-8 7-4 2-4-1 6-4 1-2-6 1-1-4 5-4 9-6 1-3-4-1v-3h-3l-2 4-2 3-3-1 4-8 2-6h-2v-10l-2 9-3 3-1 11h-3l-5-10v9l-1 4v2h2l4 6v3l1 4h-3l-5-6-3-1v4h-6l-6-5-1-2-1-9-3-12-2-6-3 1-5 19v3l1 3-3 6h-2v11l-4 7-3-4v-6l-4-6-3-21-2 7-6 4-4-1-1-2 2-4-2-1v-3l-4 1 3 6-2 3-6-1 2 6 6 4-2 3-4-1v-2h-4l-4-5-2-1v-4l-3-1-3-13-5-9-1-4-1 3h-2l-2 8-1 6-1 4h2l-1 7-1 17-2 3h-2v3l-4-2 1-4-4-1v-2h-3l-2 4-2 7h-2l-1 6-4-2-2-3-5-19-2-18-4-7v-6l-2-3-1-6-3 3 1-15v-3l3 1 2-4 2 8 3 9-1 4v5h2l1 6v2l4-2-1-7 3-2 2-9-1-2h2v-2h2l-1-7 1-2h2v-6l6-11-2-1 2-9 2 3 2 5 2 3h-4l2 6 3 1v2l-2 1 2 2 2 9 1 7v2h-2l3 5v3l-1 4h2l3-4v-16l2-2 3 13h4v-2h4l-5-4-1-4 7-1-5-4 5-1-5-3 4-5-4-1 2-8-2-1 5 1 8 2v-2h-6l-6-3 3-1v-2l-2-1h7l-6-3 1-2-2-4 5 2 6 1-8-4 2-4 3 1v-2l-2-1-1-4h3l2 1v-3l-3-1 1-4 2-1v-2h2z"
          fill="#7B012F"
        />
        <path
          transform="translate(1506,502)"
          d="m0 0h5l5 3h18l15 6 4 1v2l5 1 5 9 5 4 14 1 7-6 19 2 8 1 9-4 5-2v-2h2v-2h20l11 3 21 7 7 3 2 5 6 2 2 2 13 2-5 4-5 5-3 1-17 1-4 2h-8l-8-1-10 5-9 1-5 2-7 2-9 7-3-1-3-3-2 4 2 1-5 3-8 1-1 2-5-2-10 2-1-2h3v-2l-2-1v-3l-3-1 1-5v-3l-2-1-3-1 5-2v-2h-2v-2h2l-3-6-1-7v-3l-4 1 1 3-6-2v2l-2 1v3l7 2v1h-7l-4 1v3h2v2l-3 1 1 2-2 4-9 2v-2l5-4-2-1-1 2h-2v-5h2v-2l3-2 1-5-4 1v2h-2l1-6-1-5v-2l-4 1 3 2v5h-3l3 5-2 1-3-4-1 2 3 1v2h2l-1 4 1 1 1 3-4 1-4-4 4 5 3 2-1 4h-3l4 2v5h-3v-2l-5-1-2-1v2l5 2 5 3v7l-2 2-1-7-1 5v5l-5-2-7-5v-2l-4-2-7-7-3-2v-3l4 1v-2l-4-2-2-4 1-3-2-5v-3h2l-3-5v-5l-1 10-2 2-2 9h-3l-1 5h-2v2l2 1-4-1-2-4 1-3v-11h-2l-2 9-2 2-2 4v4l-4 2-1-2h-3l-2-3-5 3-4-1 5-2v-2l4-3-4 2-4-1 5-2v-2l5-2v-2l-7 4-3-1h2l-1-3 4-1v-2h-4l2-4 2-1-8 1 5-5-3 1-3-1 4-3-2-1v2h-6v-2l5-2-2-2 3-5-3-2 3-1v-5l7-3 9-3 2-3 8-3z"
          fill="#C8273B"
        />
        <path
          transform="translate(1129,512)"
          d="m0 0h1l2 9 1 1v6h2v2l4-1 2 8 2 1v3h2l1 2 3-9 2 1 2 11 2 1 1-3v-5h4v-2h-2l2-4v-1-3h5l2-3 4 2h3l2 5v3h2l3 12 4 4 1-2-1 6-3 3 1 4-3 9-1 9-1 4v3h-2l-2-7 2-2h-5l2-4 1-4-6 2 1-3h2v-3l-6 2v-3l8-3 2 1-1-6-1-1-1 2-3-1-5 2 1-4 5-1-2-3-7 1-4-2-1 2 4 2-1 1 4 1-1 4-4-1v-2l-3 1 1 4-1 2 8 1v3l-6-1h-3l4 4h-5l-1 2 7 2-2 3-6-1v-7l-3-1v-2l-2-1v-2h3v-4l-4-2 5-5-8-2 3-1h2l-2-1-1-3-2-1-1-3-3 2v4l-2 2 2 3h-3v3l3 1-4 4h2l-2 4-2 5 4 1-4 1-1 5h5l-3 3h-2l-3 10-1 1 3 1-2 2v2h-2v2h-3l-1-4-9 1 4-2 3-1 1-4-3-1 3-5-5 1 2-4 1-1-7 2v-2l6-3 1-6-7 2 4-4-1-1 1-7-4 1v-2h2v-3h-5v3 4h-3l-1 5 5 2v2h-5l-1 2 3 2h-2l2 4-5-2 1 1 2 5-3-1v3l6 2v1l-5 1-1 2 2 1h-2l-2 7h2v2l-6-1-2-2v-6l2-2-6 1v-2l-5 1v-2l7-5h-5l3-5v-4h-2l-1-6-3 1 1-13-2 3-2-1 2 3v5h-2l2 7-1 4-1-6-4 1 2 5 1 4-5-2 1 5-1 1 2 1v2l5 1v3l-6-2-9-6-4-3 10 9 3 3v2 3l-4-1 1 3h-3l5 1v1h-7v3l-5 2h2l-1 2-1 1 2 1v2h-4v2l3 1 1 2 7 1v2l-4 1-5-1v-2h-2v3l2 1 3 2v2l-5-1v4l4 1-4 1-4-3h-3v-2l-4-2 4-4h-4l-1-3 5-2v-2h-9v-1l6-2 2-4h-2v2h-2v-2l-2-1 1-3-3-3 1-34 1-10-4-1-1 4-2 1 2 2v14l-2 19-5 1-3-2-2-19-2-7-2 7-3 16-3 8h-2l1 5h-2l-2-7-3-11-2 16-5 9v5l-5 4-1-5-1-2h2l-2-8-1-12-1-9-1-26-1-1-2-36 4-2v-3h2v-2h4l1 9 3 2 6 15h2l3 5 7 6 6 3 2-9h3v4l6-4h6l1 2 6-1 8 7v9l2-2-1-2 2-7 2-4h2v-3l3-3 1-3 6-3 1-2 3-1 3-7h4l1-5h1v6h2l2-4 6 1v-2l4 1v-3h2l2 5v10l3 3 2-10 2-3 3 10 1 1 4-15 4-2-1-4z"
          fill="#EE4239"
        />
        <path
          transform="translate(157,446)"
          d="m0 0h6l16 7 12 5 15 7 6 4 7 6 5 4 16 4 5 2 12 3h6l-4 4-13 8-9 4-7 2-4 3-7 1-7-3h-9l-9 5h-2v2l-5 3-10 3-10 5h-3v7l1 2-1 2 2 1h-5l-1-9h-9l-7-3-2-1v-2l-10-2-3-3v-2l-6-1-3-1-4 2-12 2-3 1h-7v-2h-3v-2l-10-2-5-2-8-2-13-5h-5l-5-5-6-1-4 2 1 5-4-1v-3l-10-10 1-2 7 7h14l11 5 5-1 4-4 12-6 9-2 17-9 5-4 10-5 4-3 9-3 10-7 12-8z"
          fill="#FD7C49"
        />
        <path
          transform="translate(1293,494)"
          d="m0 0h2l3 12 2 6v6l-1 2 3-2 4 1 5 3 7 8 5 3 1-8 2-5-1-4 2-3 3-9 3 4 2 3-1 6h2l1 10 2 2 5 1v-2l4-2h17l3-2 10-1-2 7-2 3-1 6-2 7 2 1-1 3-1 4-2 4 4 1-3 3-2 5-7 3 1 2v10l-3 4h-2v2h-2l-1 4v9l-3 3h-3v-2h-3v-2l4-2-4-1 4-1-5-1 3-4-5-1 1-3 3-1 1-2h2v-2l-5 3-2-1 2-3h2v-2l-7 2-2-1v3l2 1-3 4 4 1v3l-5-1 1 3 4 2-3 1 2 3-5-1v5l-5-1v-4h-2v-2l-3-2 1-2h2l-3-6 2-1 1-4-5-1 3-2-4-4 1-4-4 1-2 1 1 3-2 3v4h-2v2l3 2-4 2 4 2h-2l-2 4-2 5 4 1-3 1-2 4h2l1 6-5-2v-2l-11-1 2-3-2-2v-3l-5 1 3-3h2v-2l-3-1 2-3v-3l-5 2 1-4-4-2 1 7h-4v6l4 4-6-1 3 4v2h-5l3 3-3 1-5-1-3-5 2-2-5-11v-3h-2l-1 9-2 5-2 7-6 1v-8l-2 6h-2v-3l-2-1-1-4-8 1v-2l4-1-2-2 7-3-4-1-4 2 1-4 5-2 1-4-5 4h-2v-4l3-3v-2l-3-1 1-5v-3l4-2 3-12 2-1 1 10 3-2 1-3h2l3-11h2l2-5 5-8 3-5 7-6h7v-4l2-1v-12z"
          fill="#C8273B"
        />
        <path
          transform="translate(1436,484)"
          d="m0 0h7l12 2 2 2 1 8 8 1 18 8 6 3h6l-1 2-11 4-5 2h-3v-2h2l-1-2h-2v-3h-3l-1-4v3l-2 1 2 5h-3l1 4 2 2-5-1 5 5v2l-6-1-1 1v2l7 2v1h-8l1 3 7 2v2l-8-1v4h-3v2l3 1v3h-3v2l4 1 2 2-6-1v2l4 1-1 2-2-1-1 2-2-1 4 7-2 1 6 1v1h-9l3 9-9 2-13-2-1-5v-11l-1 15-5 1-12-6-1-3-4 1-1-1-8-1-1-3h-9l-5-3-2-6-1-4 1-5-2-6-1-5h2l-6-13v-6h-2l-1 9-5 2h-6l-2 2h-17l-4 1v2h-5l-3-3-1-8 1-2h-2v-6l-4-6-3 10-1 3 1 3-2 4-1 9-8-5-7-8-4-2-6 1v-8l-3-8-1-7 4 1h4l3 3 6 3v2h7l-3-7v-7l4-2-4-5 6 1v2l15 1 29 15 3 2 15 3h16l4-4 10-4 6-3 10-9z"
          fill="#FC6B40"
        />
        <path
          transform="translate(1200,611)"
          d="m0 0 3 1 3 7 3 14 1 5 5 10 2 16v5l2 2 3-9 2 2 3 10h3 3v2l7 3 9 1-1-2h-8v-2h-2v-2l-3-1 1-4 9 1v-2l-4-2-3-2-2-7 5 2 7 3v-2h-2l-4-4-1-3v-9l5-2h3l-1-3 5-2v-2l-3-1 1-4 2-2-5-2-1-4 3-2-2-2 5-1 1-3 6 2-2 4h-2v2h9l-4 7 2 5 3 4-2 10-9 1v2h6l2 2v3h2v2h-2l2 5 3 1v4l-6 3 5 3v4 2l2 2 4-10 4-3-2 8-4 9 1 12-3 6h-2l-1 7-3 5v5h-6l1-2v-7l2-3-6 3h-2v-4l4-2 1-3h-5v-5h-7l-3 9h2l4 5-3 3-3-1v-2l-6 3-2 2-2-3-1-7 2-4-2-7-3-16-3-4-1-5-5 5-3 5-2 9-2 4h-2l1 10h-2l-2 12 1 4-3 1-3-1v-2l-3-1-3-5 2-10-1-6-3-5-6-23-1-2-1-10-3-4h-2l-1 7-1 6-4 7-1 12-2 4-1 15-4 8-2 7-3 3 2 2 1 6-8 4-12-1-1-2h7v-2l-11-1-3-3 1-2 12 1-1-2-10-2-2-1 1-3 5-1 5 1 7-2v-7l2-2 4-1 1-2-4-1-1-2v-3l-4-3 2-5-17-1h-3l-3 4v6l-10 3-2 2h-7l2 2-4 1-7-3 1-10 14 4h5l-10-4-4-4 1-1h5l6 3-1-4-1-3-12-5-6-4v-5h2l1-2 7 4 3 3 8 1v-2l2-1-5-3-3-2v-2h6l-9-5-4-5v-2l4-1-1-6 2-1 12 6 4-4-5-2-2-6 6 2v-3l-6-3-2-2-1-7h4l3 4 7 2 1-4-3-5 1-3h2v-5l2-1 2 4 2 1v2h6v-2l4 1 1 11-4 2v3l3 1 1 4 2 2h3l-1 5 4 4-2 4-3 1-1 4 4 1-2 5-3 2v2h8l1 5v3l-3 1-2 3h7l-2 4-1 1 3 1v4l3-1 2-6 1-13 5-9-2-2 3-4 2-9h2l1-7 2 2 2 6 2 4h2l2-9 2-6h2l1-7-1-1v-6h2l1-9z"
          fill="#4E012E"
        />
        <path
          transform="translate(552,504)"
          d="m0 0h2l4 10 5 2 13 6 4 3 2 5 4 2v2l8 2v-14l1-4h-11v-1h12l1 4v15l5 2 3 6 3 3v2h3v3l8-4 1-8 2-2-4-2h6l2-24h1l1 14 3 10 1 6 2 7h2l-1 11-2 8-2 4v3l1 3-3 7 1 4-3 4 1 3 2 1-4 2v3l3 1-2 4-1 4h-2l-5-13-2-11-2 1-1 9-3 5 2 1-3 7-2 3-1-3-3-1 2-1-1-2v-6l-3-1-1-4h3l-4-4v-2h-2v-2h3l-2-2-2-9-3-3-3 19-2 7 2-1-2 9-1 3 2 1-5 10-2-2-4-10-1-5-1-4 1-1-2-3-1-4-4 13-4 6-4-1-3-4v-2l-5-2-2-3v-7l3-16-15-7v-1h-7v-2l7-3-2-1-7 3h-4l1-3 8-2h-3-4v-2l6-2 1-5-9 3v-3l5-1-1-3 3-2-3-1-3 1 1-3 6-2-2-1v-2l-4-2 4-3v-3l-5 1v-12l-1-1v9l-2 7-2-3v-3h-3l2 7-2 1-1 6-3-1 3 5 2 3-4-1v-2h-2l5 5 4 2v2h-3v-2h-2v2l-3-1-1-3-2 1 1 3-3 1 9 7-2 1-6-1-2-3-2 1-2-5v-8l-6-20h2l1 2 11-6 4-1v-2h2v-4l17-2h8l1-6 1 2h2z"
          fill="#C8273B"
        />
        <path
          transform="translate(856,598)"
          d="m0 0 1 4 2 4v3 4l-2 1 2 2-2 1 3 3 1 4-2 2 2 4-1 3h-3l4 7 3 4-4 3-1 3 5 2v6l5-2v12l2 2-2 5h2l2 9v4l7 1v-3h8v-2l-6-1 2-3h6l-1 4h5l-3-4 1-3-5-1 1-5 7 1 5-3 3 3 2-4-2-2v-7l2-11 1-16 2-6 2 4-1 15-1 19 4-2h5l1 2-3 1v4l7 1 5-8 3-3v-3l-8 2 2-4 5-6 4-4 2-4h-2l1-7-1-3-3-1v-3l9 3 2 4 3 2 5 1-3 4-4 4 4 4-1 4-4-1-2-8-5 3-3 7v3h3l-2 12-5 4-1 2 6 1v5h-4l-1 3h-2l1 7-2 6-6 2 1 4-1 2 9 2-1 2-3 1-1 5h-2l2 3v5l-5 5v6l-2 3 6 3-2 4-1 1h-8l-2-4v-3l-8-2v-2l-4-2h-3l-3 6-5 1-3-2-1-10-1-6h-2v-8l-4-8-1-10-3-8v-6l-3-3-4 8-2 17-6 18-2 13-4 8-2 5-3 2h-5l-2-4-5-3 1-3 3-1-1-5 5-2v-2h-16v-4h7 4l3-4h-12l3-2 10-3-2-2-7-3 3-3 6-3 1-1-8-1-1-2-7-2-1-3 8-1-7-3 4-3h7v-4h-14l-1-4 7-1v-2l-4-2 1-4v-3-2l-4-1 10-8 3-3 5-1 1 2h4l1-9 2-2-5-3 3-2-2-4 5-3v-1l-7-1 1-2 6-1-1-4 2-4h-5v-3h2l-1-3 6-2h3l-1-3h-3v-2h2l1-2h2l-1-4z"
          fill="#4E012E"
        />
        <path
          transform="translate(326,500)"
          d="m0 0h1l4 15 2 5h-3l4 10h3l2 6 13 1 4 2 5 16 1 9 7 5 1-25h1l2 30-18 1-3 1-1 4-7 7-5 3h-3v2l-25 1-4 3h-3v2l-8 5-12 1-3-2v-2l-9-1-5-2-5-4-12-6-1-3h-3v-2l-4-2-8-10v-2h-2v-2h-10l-11-5-10-2-14-4-3-3 10 3 12-1 15-2 6 2 5 2 13-1 9 2 4-2h4l1-4 4-2 16-1 12-1 7-9 12-1 3-9 3-7-2-1 3-6 3-5z"
          fill="#7A002F"
        />
        <path
          transform="translate(448,464)"
          d="m0 0h43l2 2-2 2-11 1 56-1 8-1h25l7 2-1 3-14 1-3 1 7 1h17l2 1h14l3 2-1 2-13 1-4 2-32 2 9 2 47 1v3h3v2l-5 1v2l-5 5-10 2-3 1v2l-17-4-16-6-4-1-26-7-14-5-5 1-5 3-20 7h-4l1-5-1 1-2 6-14 5-9 3v-3h2l1-3 3-1 1-2-5 1 3-3h2v-2h-7l4-3 1-3h2l-2-3-1-3-5 2-5-1 1 5-1 4 4 2v2l-6-2v7l6 3v3l-6-3v6l-3 1-9-3 3-1v-3h-2v-2l-3-1v-2l2-1-2-1v-4h-2l-1 5-2 2-1 4-2 4-7-1-2 6-5 5-3-2v-3h-3l-1-2-3-1-4 1v2l-9-1-11-4-14-3-4-3 1-3 8-1-2-6 10-3 20-2 28-1 17-2h-32l-3 1-24 1h-14l-3-3 8-3 11-2h10v-3l-10 1-2-1 2-4 4-1 32-2z"
          fill="#FDE7DA"
        />
        <path
          transform="translate(507,482)"
          d="m0 0 6 1 18 6 19 5 4 1 16 6 17 5v-2l3-2 10-1 2-4 3-1v-2l5-1v-2h-2v-2l8-3h6l6 4-3 1v2l5 1 2 6 3 2 1 3 5 2 7 8h6l4 5 1 5 6 5 1-2v8l-5 11v6l-1 5h-2l-3-6v-2h-2l-2 6h-1l-3-12-1-8-5 12-1 5-2 1-2-5-2 3-3-10-1-6-4-16v8l-2 8-3 4-1 8-6 4h-3v-3h-3l-6-8v-3l-6-2v-19l-1 5-1 14h-5l-3-2v-2l-5-2-3-6-10-5-10-4-2-2-2-5v-4h-2l-2 6-3 1-1 3-16 2h-9v4h-2v2l-11 6-5 2v-3h-2l-3 10-2 5h-2l1 7-3 6-2-1-3-5-2-5h3l-2-5-3-4 3-2-2-5h-2l1-5h-2l-2-11 2-4-5-6v-7l-2-1v-4l1-2 2 1-1 5 27-9z"
          fill="#FC563C"
        />
        <path
          transform="translate(0,474)"
          d="m0 0 5 2 10 7 7 5 6 7v2l5 2 1 2h-2v2h3l-1-5 5-2 6 1 5 4v2l5-1 15 6 10 2 8 3 3 1v2h3v2l10-2 12-2 5-2 8 3 3 4 10 3v2l9 3h9l2 6-1 4h4v2l4 2-3 1-6-2h-8l-8-1-8 5-11 4-5 1-13-9-18-11-4 2-2 2-8 3-8 6-7 2-2 4-8 6h-2l-2 4-7 2-9 1-10-4-11-6h-5l-4 2z"
          fill="#FB563D"
        />
        <path
          transform="translate(1014,612)"
          d="m0 0h2l3 7v7l2 7v12l3 6v7l3 4v2h2l-1 10 6 10v2l4 1 1 3 1 6 2 2 2-2 1 6 4 1 1 4-4 1-1 3 11-3 2 2h3l1-5 3 1v-2h2v-2l2-1 2-4 1 2 3 1 1 4h-2l3 6 1 3 7 1 2 2v-7l-1-4 3 2v2h12v-2l-5-1-1-4h6l1 2 3 2 8 2 2-4h6l4 5-3 3-5 1-1 3 20 1-4 4-5 2-16-1-3-1-1 3 7 2 6 2-1 3-5 2v1l11 2-2 3-3 1h-10l2 3 6 1-2 2-4 2h-3l2 3h11l-2 1v2l-18 2-4-2v-2l-4-2-2-3-1-7-3-1v-3l-4-2-2-7-7-5 1-7-6 3-1 7-3 3v6l-1 2-1 15-4 4-4-1v-2l-4-2-5-8-2-5v-3h-2l-1-4 3-2-2-3 1-4 2-1-5-5-1-3-3-1-1-7-2-3 1-6-2-4 1-3-6-7-4-12v-4l-1-5-3-1v-10l-3-6v-15l-1-4h-2l-1 4-2 4 1 9-5 12-1 9-1 2h-2v11l-5 12-4 6-1 1-1 18h-2l-2 5-2 6-2 13-3 2-2 14h-8l-1-5h-7l-4-2 4-4-3-1 1-3 7-1h-9l2-5h2l1-4-11-1v-2l9-3h3v-2l-10-1-1-2 2-3v-3l6-3-9-2v-2l4-1-1-2-5-1 5-4 5-3-1-1-7 1-3 1-4-4 2-3 6-3 2-4h-10l-2-1 2-4-2-3 5-3-4-3v-7h-2l-3-4 4-1 1 3h2v3h5l1 2 3 1v2h-4l-3-3-1 3 6 1 4 1 1 2h3v-3l-2-2 4-2 4 1 3 2-1 3-2-1v-2l-2 1 2 7-2 1 13 4 1-7h4l-1-4 2 1v3h2l2 4 5 1 1 2h2v-2h2v-7l1-5 1-9h4l2-8 1-2v-12l4-9-2-4 2-2z"
          fill="#4E012E"
        />
        <path
          transform="translate(754,453)"
          d="m0 0 5 1 9 6 16 7 13 4 9-1 5-3 6 1 14 5v1l-6 1-3 3h-5v2l-9 4-8 4-13 4-6 2-7 5-12 4-18 10h-8l-13-3-3-2v-2l-14 1-2-1-1 3-7 3-4 2v6h-6l-2 6-4 2v2l-11 1-3-3-1 2-4-2v-2l-3-1-2-6-2-4-6 1-8-9-5-2v-1h5l2 1 19-9 6-3 16-9 11-3 1 1 7-1 18-10 10-3 11-6 8-6z"
          fill="#FD7C49"
        />
        <path
          transform="translate(956,447)"
          d="m0 0h1l1 13 9 5 13 5 1 2 7 3 3 2v2l6 2 8 4v3l-2 1h-7l3 7 2 2h6l1 3v14h-5l1 3v7l-2-1v-9h-4v2l-2-1-7-2-9-2v-2l-5 2 1 4 2 2h-2v2l-5 1v-2h-30l-17-1v3h-3v8l-2 19 9-12-1-7 2 4 4-2-2 8h-3l-6 11-1 4-3 1 1 8h-2l-1 20-1 11 2-2-1 4-3 1v2l-4-2-6-4 2-3 4 2 1-2h-3v-3h-3v-2l5 1 1-2h-3l1-2 2 1 2-17 5-47h-5l-1-1v-5l-12-3-1-13 5-1h16l-1-9-2-1v-2l-6-1-6-2v-2l14-6h3l1-8h2v5l27-9 4-1v-12z"
          fill="#7B012F"
        />
        <path
          transform="translate(1889,489)"
          d="m0 0 5 1 6 4 9 3 8 2 3 2v51l-17 6-7 2-4-6-2-7-15-4-7-2-16-3-4-4-12 2h-8l-9-1-2 6-2 3h-2v-3l-5 5-3 1h-8l-9-4-11-4-9-2 2-2h14l14-6 10-4 13-7 14-4 18-7 8-6h3v-2l8-2 1-3 12-3z"
          fill="#C9283C"
        />
        <path
          transform="translate(87,528)"
          d="m0 0 6 2 20 13 7 5 5-1 8-3 3 1-4 3h-3l-1 2-7 2-7 8h-2l-1 4-7 4-9 6-5 8-5-5-8-10h-6l-1 3-6 1h-16v2l-4 3h-2l-1 4-7 12h-2l-1 5-3 1v2l-6 2-9 6h-2l-2 4-6 8-3 1v-68l4-3h5l17 9 8 1 11-2 5-5 5-4 7-6 8-4 9-6 5-2z"
          fill="#79002E"
        />
        <path
          transform="translate(1248,459)"
          d="m0 0 15 1 1 4 7 1 10 13 1 1h8l14-5h5l4 6 5 5-1 1 4 4-3 2h-2l1 7 2 3v4h-7v-2l-6-2-3-3h-4l-4-2v-3h-2v4l-16 8-14 3-4 3h-15l-8 1-2-1-2-5v-4l-3 1-2-3-9-2-4-6-8-3v-2l-5 2v-2h-4l-1 6-6 2-3 8h-1v-5l-19-1 1-3 21-12 15-9 10 1 2 1v-2l15-9 7-3z"
          fill="#FD6C40"
        />
        <path
          transform="translate(745,533)"
          d="m0 0h1l2 11 1 2h-2l2 5-1 1 2 2v5l4 2 1-5 2-2 2 7 3-1 1-8 1-1 2-9 2-3 1 11 2 10 1 1 2 9 3-4 1-6h2l2 15 2 2 3-3v-2l-3-1 4-1 2-4v-6l3-7 2-5 2-2 3-12 3 3 3 14 4 1 2-3 2 5 3-2 3-11 2 3 2 4 2 14 2 5 5-1v3l-2 5-4-1v4l6-1-1 4-3 2v-3h-2v2l-3 1 2 4h-4l1 3-2 4-5 2h-3l2-4 5-2-1-1-6 2v-5l5-5v-3l-3-1 1-2-2-1-1-1-1-2 1-3h2v-2l-7 1v2l3 1v5h-2l2 5-3-1-1-1 4 5-2 3 2 1v4l-4-1v-3l-3 1 1 3 6 3v4h-2v-2l-4-1 6 6v4l-4-1-6-4 1 3 8 4v10l-2-1-1-3v14l-2 3v-5h-2l-3-5v-2l-4-2v-4l4-1-4-2-2-3v-7l-2-9v-3l-1-6-1 6h-2v2l2 1-2 3-2 10-4 2-1 5-2 1v3l-5-5v-2l2-1-1-5-2-9-4 10h-2l1 3-1 7h-2l-1 5-4-4-5 1v-2h-2l-1 2v-3l-5 3-3-1 4-3 3-1-1-2 5-3h2v-2l-10 5-7 1 1-2 9-3 1-3 4-2 1-2-7 4h-3l-1-4 6-2v-2l-3 1-3-2 2-3 3-2-10 2 3-1v-2l6-4-7 1 3-4-3-1v3h-7l1-3 6-2-3-2 5-8-3 1v-4l2-3-5 2-1-4 3-2-1-2h3v-3l-2-1 3-4-1-2z"
          fill="#C8273B"
        />
        <path
          transform="translate(1020,448)"
          d="m0 0h104v3l-15 2-20 1-30 4-5 1v2l30-1 21-3 13-1 34-2 11 2-4 3-16 1-1 2-2-1-1 2-16 1v-2l-2 1h-7v-2h-4l4 3v2l6-1 1 4 10 2 1-3h5 2l1-3h2l2 4 46-2 2 2-2 2-9 1-3 1 1 2h8l10-1h2l-2 5-10 6-21 12-11-1-11-4-16-2-14-3-13-4 1-4 3-4-5 5-4-2-5-5v2h2v2h2l1 4-15-5-15-7-21-8-12-7-9-2-2-1v-2z"
          fill="#FDE6D9"
        />
        <path
          transform="translate(1129,512)"
          d="m0 0h1l2 9 1 1v6h2v2l4-1 2 8 2 1v3h2l1 2 3-9 2 1 2 11 2 1 1-3v-5h4v-2h-2l2-4v-1-3h5l2-3 4 2h3l2 5v3h2l3 12 4 4 1-2-1 6-3 3 1 4-3 9-1 9-1 4v3h-2l-2-7 2-2h-5l2-4 1-4-6 2 1-3h2v-3l-6 2v-3l8-3 2 1-1-6-1-1-1 2-3-1-5 2 1-4 5-1-2-3-7 1-4-2-1 2 4 2-1 1 4 1-1 4-4-1v-2l-3 1 1 4-1 2 8 1v3l-6-1h-3l4 4h-5l-1 2 7 2-2 3-6-1v-7l-3-1v-2l-2-1v-2h3v-4l-4-2 5-5-8-2 3-1h2l-2-1-1-3-2-1-1-3-3 2v4l-2 2 2 3h-3v3l3 1-4 4h2l-2 4-2 5 4 1-4 1-1 5h5l-3 3h-2l-3 10-1 1 3 1-2 2v2h-2v2h-3l-1-4-9 1 4-2 3-1 1-4-3-1 3-5-5 1 2-4 1-1-7 2v-2l6-3 1-6-7 2 4-4-1-1 1-7-4 1v-2h2v-3h-5v3 4h-3l-1 5 5 2v2h-5l-1 2 3 2h-2l2 4-5-2 1 1 2 5-3-1v3l6 2v1l-5 1-1 2 2 1h-2l-2 7h2v2l-6-1-2-2v-6l2-2-6 1v-2l-5 1v-2l7-5h-5l3-5v-4h-2l-1-6-3 1 1-13v-7l4-10 1-8h2l1 10h2v3l-2 1 3 3-2 2 2 1v3h3l-1-6 4-1-2-5 2-2-1-2 5-19h2l2 5v10l3 3 2-10 2-3 3 10 1 1 4-15 4-2-1-4z"
          fill="#C8283B"
        />
        <path
          transform="translate(1137,613)"
          d="m0 0 3 4 2 1v2h6v-2l4 1 1 11-4 2v3l3 1 1 4 2 2h3l-1 5 4 4-2 4-3 1-1 4 4 1-2 5-3 2v2h8l1 5v3l-3 1-2 3h7l-2 4-1 1 3 1v4l3-1 3-3v15l-4 8-2 7-3 3 2 2 1 6-8 4-12-1-1-2h7v-2l-11-1-3-3 1-2 12 1-1-2-10-2-2-1 1-3 5-1 5 1 7-2v-7l2-2 4-1 1-2-4-1-1-2v-3l-4-3 2-5-17-1h-3l-3 4v6l-10 3-2 2h-7l2 2-4 1-7-3 1-10 14 4h5l-10-4-4-4 1-1h5l6 3-1-4-1-3-12-5-6-4v-5h2l1-2 7 4 3 3 8 1v-2l2-1-5-3-3-2v-2h6l-9-5-4-5v-2l4-1-1-6 2-1 12 6 4-4-5-2-2-6 6 2v-3l-6-3-2-2-1-7h4l3 4 7 2 1-4-3-5 1-3h2v-5z"
          fill="#4E022D"
        />
        <path
          transform="translate(1296,463)"
          d="m0 0h32v2l-43 5 44-1h31l20 1 32-1 16 3-3 3-13 2-28 1-10 1 1 2 9 1 22 1v4l-2 1-15 1v2l32-1 4-1 2 4-10 8-8 3-6 3-3 3h-16l-15-3-28-15-4-2-13-1-2-1v-2l-5-2-6-5-2-5-13 4-6 2h-8l-8-9-2-7z"
          fill="#FDE7DB"
        />
        <path
          transform="translate(507,482)"
          d="m0 0 6 1 18 6 19 5 4 1 16 6 17 5-4 2-9 4h-3v-2l-4-1v-3l-4-1v2l-6 2-2-2v-3h-3l-2 6-3 1-1 3-16 2h-9v4h-2v2l-11 6-5 2v-3h-2l-3 10-2 5h-2l1 7-3 6-2-1-3-5-2-5h3l-2-5-3-4 3-2-2-5h-2l1-5h-2l-2-11 2-4-5-6v-7l-2-1v-4l1-2 2 1-1 5 27-9z"
          fill="#FC7B49"
        />
        <path
          transform="translate(851,550)"
          d="m0 0h2l3 7v3l6-2 4-3h5l1 3 13-2 3-1 5 1 5 7 6 4 8 1-1 11-1 4-3 1h3l-1 3-5-2v2h3v3h3l-1 3-5-1 5 4v3l-5-2-3-2 2 7-4 1 1 5 4 1v2l2 1-1 2h2l-1 2-6-1 1 3 6 3-3 3h-6l-1-4-1 5h-2l-1 5h-1v-8l2-5-2 1-2 14-5-5 4-4-5-1-1-3 2-1-5-4v-2h3l-2-4-2-9-3-5-3 6-4 1 1-12-1-5-1 7-1 1 1 5h-3l-2-13-4-8-3-3-1-3-2 4h-2l2 5v5l-2-1-1-3v4l3 5-1 2h-3l1 3-4-1v3l-4-2 1-2h-7v-2l7-2h-2l-1-3 3-3h-2v-2l-2-1v-8h-2l-1-4 3-1-1-2-5 1-3 1-1-5h2v-3h2l1-3h2l1 3h2l1-2 2 4 2 12 2-3v-3l2-5 2-2-1-4z"
          fill="#FB553C"
        />
        <path
          transform="translate(1466,511)"
          d="m0 0 3 3-1 3 3 3-5-1 5 5v2l-6-1-1 1v2l7 2v1h-8l1 3 7 2v2l-8-1v4h-3v2l3 1v3h-3v2l4 1 2 2-6-1v2l4 1-1 2-2-1-1 2-2-1 4 7-2 1 6 1v1h-9l3 9-9 2-13-2-1-5v-11l-1 15-5 1-12-6-1-3-4 1-1-1-8-1-1-3h-9l-5-3-2-6-1-4 1-5-2-6-1-5h2l-5-10 1-3v2l4 1 10 5 10 4 2 2 2 7 5 8 1-2h2l1 5 6-22h1v7l19-8 5-5 3-1 1-6 2-2h5z"
          fill="#EE4339"
        />
        <path
          transform="translate(1029,680)"
          d="m0 0 3 1 2 5 4 1 1 3 1 6 2 2 2-2 1 6 4 1 1 4-4 1-1 3 11-3 2 2h3l1-5 3 1v-2h2v-2l2-1 2-4 1 2 3 1 1 4h-2l3 6 1 3 7 1 2 2v-7l-1-4 3 2v2h12v-2l-5-1-1-4h6l1 2 3 2 8 2 2-4h6l4 5-3 3-5 1-1 3 20 1-4 4-5 2-16-1-3-1-1 3 7 2 6 2-1 3-5 2v1l11 2-2 3-3 1h-10l2 3 6 1-2 2-4 2h-3l2 3h11l-2 1v2l-18 2-4-2v-2l-4-2-2-3-1-7-3-1v-3l-4-2-2-7-7-5 1-7-6 3-1 7-3 3v6l-1 2-1 15-4 4-4-1v-2l-4-2-5-8-2-5v-3h-2l-1-4 3-2-2-3 1-4 2-1-5-5-1-3-3-1-1-7-2-3 1-6-2-4 1-3-5-5z"
          fill="#4F022E"
        />
        <path
          transform="translate(666,526)"
          d="m0 0 2 2 1 10 2 9 2 10v11h3l3-19h1l2 18 2 5v3l2-1 2-5h1l2 8h2l2-2 1 7-5 9-1 6h-2v9h-2v4l-2 9-4 2v2l2 1-1 5-2 2-3-3v-6h-2l-1-8 1-3-4-9-2 1-1-3-2-1 1 9-3 11-1 2-6-2-2-5 3-3-6-3v-2l4-1-5-5 1-2 1-1-3-3 1-2-4-4 1-4-3-7v-4-5h-2l-4-9-1-9 2 3 3-9 4-11h1l1 11 3 11 2-5h2l3 5v3h2l-1-4 2-8 4-10z"
          fill="#C9283B"
        />
        <path
          transform="translate(998,515)"
          d="m0 0h4l1 9 3 2 6 15h2l3 5 7 6 8 5 6 2v2l4 2v14l-2 19-5 1-3-2-2-19-2-7-2 7-3 16-3 8h-2l1 5h-2l-2-7-3-11-2 16-5 9v5l-5 4-1-5-1-2h2l-2-8-1-12-1-9-1-26-1-1-2-36 4-2v-3h2z"
          fill="#EE4239"
        />
        <path
          transform="translate(1529,520)"
          d="m0 0 5 1 2 5h3v2h3v2l6 2 3 4 5-1v5h-3l3 5-2 1-3-4-1 2 3 1v2h2l-1 4 1 1 1 3-4 1-4-4 4 5 3 2-1 4h-3l4 2v5h-3v-2l-5-1-2-1v2l5 2 5 3v7l-2 2-1-7-1 5v5l-5-2-7-5v-2l-4-2-7-7-3-2v-3l4 1v-2l-4-2-2-4 1-3-2-5v-3h2l-3-5v-5l-1 10-2 2-2 9h-3l-1 5h-2v2l2 1-4-1-2-4 1-3v-11h-2l-2 9-2 2-2 4v4l-4 2-1-2h-3l-2-3-5 3-4-1 5-2v-2l4-3-4 2-4-1 5-2v-2l5-2v-2l-7 4-3-1h2l-1-3 4-1v-2h-4l2-4 2-1-8 1 5-5 7-4 8-2 11-1 11-4 4-3z"
          fill="#C8273B"
        />
        <path
          transform="translate(696,570)"
          d="m0 0 2 3 2 5 2 3h-4l2 6 3 1v2l-2 1 2 2 2 9 1 7v2h-2l3 5v3l-1 4h2l4-3 2 2h-2l-2 8-1 6-1 4h2l-1 7-1 17-2 3h-2v3l-4-2 1-4-4-1v-2h-3l-2 4-2 7h-2l-1 6-4-2-2-3-5-19-2-18-4-7v-6l-2-3-1-6-3 3 1-15v-3l3 1 2-4 2 8 3 9-1 4v5h2l1 6v2l4-2-1-7 3-2 2-9-1-2h2v-2h2l-1-7 1-2h2v-6l6-11-2-1z"
          fill="#7A002F"
        />
        <path
          transform="translate(1506,502)"
          d="m0 0h5l5 3h18l15 6 4 1v2l5 1 5 9 5 4 7 1v4h-3l2 6-2 1v3l7 2v1h-7l-4 1v3h2v2l-3 1 1 2-2 4-9 2v-2l5-4-2-1-1 2h-2v-5h2v-2l3-2 1-5-4 1v2h-2l1-6-1-5v-2l-4 1v4l-4-2-2-3-5-2v-2h-3v-2h-3l-2-4-5-1-16 8-10 2-9 1-13 4-4 1 4-4-2-1v2h-6v-2l5-2-2-2 3-5-3-2 3-1v-5l7-3 9-3 2-3 8-3z"
          fill="#ED4339"
        />
        <path
          transform="translate(1010,493)"
          d="m0 0 11 1 4 4 7 4v2l4 2 3 5 5-1 2 1-2 3 2 2h-3v2h4l3 3 5 4 10 2 2 2 6-1 3-3 4 2 5-2h3l2-4h1v5l-3 2v-2h-2l-2 7-4 1-1 3-3 2h-3l-1 5-3 1v3h-2l-2 9v3l-4 4v-10l-6-4-1-2-6 1-1-3-7 2-5 2v-4h-3l-1 4-3-9-8-10-5-5-4-2-1-4 3-3 3-1-1-2h2l-2-10h-2v-6h-2z"
          fill="#FB693F"
        />
        <path
          transform="translate(327,501)"
          d="m0 0 5 3v2l7 1 11 2 3 3 1 6h3l3 4 5 2 3 4v2l8-1 10 1v-4h2v-2l8-2 1 3h-5l4 3-1 2h-1v2h-3l1 4h-2l3 3 2 1v2h-5l-1 2 3 1h-3l-2 7h2v2h-2v2h2l1 5-4 2h-4v2l6 2v1l-5 1 3 3h-6l-2 3-5-1-1-4-1-15-1 15-9-6-2-12-3-10v-3l-14-2-5-2-1-4-3-1-4-11h3l-4-10z"
          fill="#F8543C"
        />
        <path
          transform="translate(4,550)"
          d="m0 0h5l17 9 3 4 7 1 5 4 2 3h5v2l-4 3h-2l-1 4-7 12h-2l-1 5-3 1v2l-6 2-9 6h-2l-2 4-6 8-3 1v-68z"
          fill="#4E012E"
        />
        <path
          transform="translate(951,494)"
          d="m0 0 3 1-1 4h7v-4l4-1 2 2-2 1v2h5l2 2 1 4 5 3v2h-2l1 6 2 2h-2v2l-5 1v-2h-30l-17-1v3h-3v8l-2 19 9-12-1-7 2 4 4-2-2 8h-3l-6 11-1 4-3 1 1 8h-2l-1 20-1 11 2-2-1 4-3 1v2l-4-2-6-4 2-3 4 2 1-2h-3v-3h-3v-2l5 1 1-2h-3l1-2 2 1 2-17 5-47h-5l-1-1v-5l-10-3v-3l18-1 2-11 2 1-1 4 5-1 1-4 1 3 1-3h2v4h8v-4l4 1v3h6l-1-4z"
          fill="#4F012E"
        />
        <path
          transform="translate(319,484)"
          d="m0 0 8 1 16 8 9 3 7 5 21 5 4 2 9 2v-2l4-1 1-4v5l4-1-1 3h3l-1 3v-2l-6 4h-3v-2h-2v6l-1 2h3v2l-6 1v4h-2v2h-18l-3-4v-2l-6-2-2-4h-3l-1-6-3-1v-2l-11-1-7-2v-2l-4-1-2-4-2 3-3-2 1-4h-2v-2l-6-1-11-3 1-2 5 1z"
          fill="#FC7B49"
        />
        <path
          transform="translate(1248,459)"
          d="m0 0 15 1 1 4 7 1 10 13 1 1h8l14-5h5l4 6 5 5-1 1 4 4-3 2h-2l1 7 2 3v4h-7v-2l-6-2-3-3h-4l-4-2v-3h-2v4l-8 4-6 2-5 1-3-1-4-6v-2l6-2-7-12v-2h-3l-3-4v-2h-2l-2-5h-2l-1-5h-2v-4z"
          fill="#FC693F"
        />
        <path
          transform="translate(1316,485)"
          d="m0 0h4l1 4 15 1 4 3 5 9 5 5 7 9 1 4-7 1v3l3 2-10 2v2h-5l-3-3-1-8 1-2h-2v-6l-4-6-3 10-1 3 1 3-2 4-1 9-8-5-7-8-4-2-6 1v-8l-3-8-1-7 4 1h4l3 3 6 3v2h7l-3-7v-7l4-2z"
          fill="#FC6A3F"
        />
        <path
          transform="translate(1382,520)"
          d="m0 0 1 2 4 1 10 5 10 4 2 2 2 7 5 8 1-2h2l1 5 6-22h1l1 7 4 9 3 10 3-4 1 6-2 1-1 15-5 1-12-6-1-3-4 1-1-1-8-1-1-3h-9l-5-3-2-6-1-4 1-5-2-6-1-5h2l-5-10z"
          fill="#C8273B"
        />
        <path
          transform="translate(1192,532)"
          d="m0 0h1l1 9 4 6v7l2 9 1 9h3v-4h2v-7l1-1 1-7h2l2 10-1 4h2v2h-2l3 3 2-12 2-2 2 18h2l-2-7 5-10 2-14h2l1 12 2 4v8l1 5 5-1-1-4 4 1v7h-2l1 4-4-3 1 6h-2l-2 3 7 6-1 2-7-6 1 4 6 4-2 1-3-1v-2h-3l3 4-4-1-2 2-1 3-2-1 3 3v2h3v2h3v2l-8-2-1-2h-3l-2-4v-9l-4-14v-4h-2l-1 5-3 5-1 8h-2l1 6-2 3h-2l-3-6-2-5 4 1-4-7-1-4 2-1-4-5 1-5h-2l-1-5h3l-5-5h3l-3-3 1-2-2-4-3-10-1-6h3z"
          fill="#C9283B"
        />
        <path
          transform="translate(1078,604)"
          d="m0 0h6v4h6v3l-2 3h-3v4h3v2h-3l1 4-1 1 3 1v5l-2 2-3 1v2h6l1 3-1 2 3 1-1 3h-2l1 4 2 2-2 3v4h5l-1 3h-6-3l-1 4 3 1 4-1 1 6-4 1v-2l-5 1 2 4 3 1v-2h2l1 4-5 2-2-1-1 2h-2l-1 3-11 1-2-1-3-8v-3l4-1v-3l2-1-1-5 5-3-4-2h2v-2h-2l-2-2-4-2 2-1 1-3-3-1 5-2-5-1v-2h2v-2h4l2-8 2-1v-3l1-3 1-1-2-1 4-1 2-5-2 1-10-1v-2h5l4-2 2-4-2-1z"
          fill="#4E012E"
        />
        <path
          transform="translate(512,500)"
          d="m0 0 7 1 12 5v2l4 2 6 2h5v2l-16 2h-9v4h-2v2l-11 6-5 2v-3h-2l-3 10-2 5h-2l1 7-3 6-2-1-3-5-2-5h3l-2-5-3-4 3-2-2-5h-2l1-5h-2l-2-11h5l7-3 9-3z"
          fill="#FB563C"
        />
        <path
          transform="translate(954,461)"
          d="m0 0 5 2 11 6 12 7v2l6 1 5 3 2 1v2l6 2v1l-7-1-14-7h-5v4l-10 1h-10l-4 1-4-1-7 1-5-1-5 1h-9l-11-3-6-2v-2l14-6h3l1-8h2v5l25-8z"
          fill="#4F012E"
        />
        <path
          transform="translate(1166,526)"
          d="m0 0 5 2h3l2 5v3h2l3 12 4 4 1-2-1 6-3 3 1 4-3 9-1 9-1 4v3h-2l-2-7 2-2h-5l2-4 1-4-6 2 1-3h2v-3l-6 2v-3l8-3 2 1-1-6-1-1-1 2-3-1-5 2 1-4 5-1-2-3-7 1-4-2-1 2 4 2-1 1 4 1-1 4-4-1v-2l-3 1 1 4-1 2 8 1v3l-6-1h-3l4 4h-5l-1 2 7 2-2 3-6-1v-7l-3-1v-2l-2-1v-2h3v-4l-4-2 5-5-8-2 3-1h2l-2-1v-6h2l1-8 2-2 2 6 2 7 2-3v-5h4v-2h-2l2-4v-1-3h5z"
          fill="#C8273B"
        />
        <path
          transform="translate(721,535)"
          d="m0 0 2 1 2 6 1 5h-2l1 6 4-1-2 5 2 1 1 3h-3l-1 3 7 3 1 2-7-1-3-1 1 3-1 1 6 3-4 1h-2l-1 3 4 2 6 1v2l-8-1-3-1v2l2 1-3 2-1 3 4 1-2 4-1 1 5 3-3 1-1 1 4 4-6 1-2-1 4 6 3 3-5-1v2h7l1 2-12-1-2-7-2-5v16l-3 5-2 1-2-2 1-4-1-3v-2l-1-3h2l-4-18-2-3h3v-2l-4-1 1-2h3l4-2 1-3h2l-1-4 3-8 2-1-1-2-1-3 5-5 1-10h2z"
          fill="#C8273B"
        />
        <path
          transform="translate(1047,557)"
          d="m0 0 2 1 1 5 6 9 5 6 3 5 12 10v3 3l-4-1 1 3h-3l5 1v1h-7v3l-5 2h2l-1 2-1 1 2 1v2h-4v2l3 1 1 2 7 1v2l-4 1-5-1v-2h-2v3l2 1 3 2v2l-5-1v4l4 1-4 1-4-3h-3v-2l-4-2 4-4h-4l-1-3 5-2v-2h-9v-1l6-2 2-4h-2v2h-2v-2l-2-1 1-3-3-3 1-34z"
          fill="#C8273B"
        />
        <path
          transform="translate(1589,500)"
          d="m0 0h7l8 3 4 1-1 3h-2l1 4h-2v-2l-2 1 4 2 2-1v9l-2 1 3 1v3h-14l-6-1-7 6-14-1-7-6-3-6v-2l-5-1 4-1 9-3 14-6 8-3z"
          fill="#FD7948"
        />
        <path
          transform="translate(1040,561)"
          d="m0 0h4l-2 35-1 10v2l-4 2 3 2v2l-2 1 1 5-4 1v8l-2 2-2 5-1 7-1 2-3-1v-2h-2v-2h-2l1-5-4-12 1-4-2-3h2v-4l-4-2-1-8-3-1v-3h2v-2h-2l-1-10 2 1 3 11 1 7 1-5 2-1 4-15 3-17 2 2 2 7 2 19 6 1 2-19v-14z"
          fill="#C9283C"
        />
        <path
          transform="translate(889,561)"
          d="m0 0 2 3 2 13 1 4v5l5 2 1-4 5-1 4-4 1 4-3 1h3l-1 3-5-2v2h3v3h3l-1 3-5-1 5 4v3l-5-2-3-2 2 7-4 1 1 5 4 1v2l2 1-1 2h2l-1 2-6-1 1 3 6 3-3 3h-6l-1-4-1 5h-2l-1 5h-1v-8l2-5-2 1-2 14-5-5 4-4-5-1-1-3 2-1-5-4v-2h3l-2-4-2-9-4-5 1-9 3 4 2-10 2 1-1 14 3-3-1-2 3-7-2-1 2-11z"
          fill="#C8273B"
        />
        <path
          transform="translate(727,460)"
          d="m0 0 13 1-2 4-10 5-8 2-11 6-68-1-7-3 1-2h12l32-3 20-1-17-1v-2l2-1h28v-2z"
          fill="#FDE7DB"
        />
        <path
          transform="translate(998,515)"
          d="m0 0h4l1 9 5 12 7 11 11 9 2 1-1 5-3-1v-2l-2-1-1-3-3 9-4 2-4-3v-2l-5 2-1-3-5 4-4-2-2-16-1-24 4-2v-3h2z"
          fill="#FC7A48"
        />
        <path
          transform="translate(1131,507)"
          d="m0 0h2l1 3 2-2h15l9 3v2l17 1h4l-2 5h-21l-5 1-2-2-5-1-1 3h-2l2-6-4-1-2 5-8 1-2-4v4l-3 2-4 15-2 2-3-10-2 2v6l-4 4-1-4-1-5v-7l-1-4h-2v3l-4-1v2h-6l-2 4-2-1-1-7 7 1 2-1 1 1 4-2 1-3h3v-2l-2-1 5-2 16-2z"
          fill="#FD693F"
        />
        <path
          transform="translate(427,490)"
          d="m0 0h2v4l3 1-5 4h-2v4l2 1-5 2v2l2 1v2l-1 1 2 1-1 4-3 1v4l2 2-4 1-1 5 7-2-1 3-6 2v3l2 2-5 5 2 1v-2h2l-1 3-3 2v2l-2 2 1 4-2 4-4-1 3-2-1-2h-2l-1-5 1-2-8 2-1-2 7-2-1-2h2v-2l-5 2-3-1 8-5 1-2-4 2-3-1 7-6-5 3h-5l1-3 5-2v-5l-6 1v-2l5-2h-5v-2l5-3 2-2 3 1 3-4 3-6 7 1 2-5 1-3-2-1 4-2z"
          fill="#ED4C3D"
        />
        <path
          transform="translate(1020,448)"
          d="m0 0h104v3l-15 2-20 1-30 4-5 1-1 3h-6l-11-6-3-2-9-2-2-1v-2z"
          fill="#FDE7DB"
        />
        <path
          transform="translate(1248,459)"
          d="m0 0 15 1 1 4 7 1 10 13 7 2-4 2-5 1 2 6 5 7-2 4-10 5-3-1-4-6v-2l6-2-7-12v-2h-3l-3-4v-2h-2l-2-5h-2l-1-5h-2v-4z"
          fill="#FD7C49"
        />
        <path
          transform="translate(1320,486)"
          d="m0 0h2v2l15 1 29 15 3 2 7 1v1l-5 1 2 4 5-1 1 1v7l-2 4-10 1-2 2h-8l-7-3v-3-1h8l-5-8-5-6v-2l-4-2-6-10-2-1-13-1-3-3z"
          fill="#FC7B49"
        />
        <path
          transform="translate(1204,474)"
          d="m0 0 10 1v2l2 1-4 1 1 4 4 2 9 10 3 4h-11l-4-6-8-3v-2l-5 2v-2h-4l-1 6-6 2-3 8h-1v-5l-19-1 1-3 21-12z"
          fill="#FD7A48"
        />
        <path
          transform="translate(1466,520)"
          d="m0 0 5 4v2l-6-1-1 1v2l7 2v1h-8l1 3 7 2v2l-8-1v4h-3v2l3 1v3h-3v2l4 1 2 2-6-1v2l4 1-1 2-2-1-1 2-2-1 4 7-2 1 6 1v1h-9l3 9-9 2-13-2-1-5 1-10 7-2 3-1 2-5 1-7h5l2 3 1-4v-7l-1-4 3-9v-2z"
          fill="#C8273B"
        />
        <path
          transform="translate(874,448)"
          d="m0 0 2 2-4 4-7 4-9 2-8 1-4-1-56-2-4-2v-3l2-1h38l11-1 21-1 9-1 1 1z"
          fill="#FDE7DB"
        />
        <path
          transform="translate(1295,497)"
          d="m0 0 4 1h4l3 3 6 3v2l7 2 4 2 1 5 2 1 1 5-2 4-1 9-8-5-7-8-4-2-6 1v-8l-3-8z"
          fill="#EF4339"
        />
        <path
          transform="translate(1448,486)"
          d="m0 0h7l2 2 1 8 8 1 18 8 6 3h6l-1 2-11 4-5 2h-3v-2h2l-1-2h-2v-3h-3l-1-4v3l-2 1 2 5-5-2-4 2h-6l-3-3-5-11 1-6 4-3 1-4h-6z"
          fill="#FC7B49"
        />
        <path
          transform="translate(627,487)"
          d="m0 0 44 1 1 3-8 5-16 7-7 3-6-2-5-6v-4l-5-1v-2h3z"
          fill="#FDE6D9"
        />
        <path
          transform="translate(519,520)"
          d="m0 0h3v10l1 4-2 1-1 6-3-1 3 5 2 3-4-1v-2h-2l5 5 4 2v2h-3v-2h-2v2l-3-1-1-3-2 1 1 3-3 1 9 7-2 1-6-1-2-3-2 1-2-5v-8l-6-20h2l1 2 11-6 4-1z"
          fill="#F8523C"
        />
        <path
          transform="translate(472,496)"
          d="m0 0h2l-3 13-2 2 1 3-3 10v6l1 3-2 1v6h-4l-2-5v-3l-4-2 4-4 1-3-6 2 2-5-6 1 1-4 5-2 3-4h-2l-1 2-3-2-3 1v-4l6-3-4-2 4-2 9-3z"
          fill="#EA463C"
        />
        <path
          transform="translate(911,513)"
          d="m0 0 2 3 5 2 2 4h1l-1 14-1 12 9-12-1-7 2 4 4-2-2 8h-3l-6 11-1 4-3 1 1 8h-2l-1 20-1 11 2-2-1 4-3 1v2l-4-2-6-4 2-3 4 2 1-2h-3v-3h-3v-2l5 1 1-2h-3l1-2 2 1 2-17 5-47h-5l-1-1z"
          fill="#71002E"
        />
        <path
          transform="translate(1070,548)"
          d="m0 0 2 2 3 9 2 1v2h2l1-9 2-3h2v10l-3-1 2 3v5h-2l2 7-1 4-1-6-4 1 2 5 1 4-5-2 1 5-1 1 2 1v2l5 1v3l-6-2-9-6-4-4 2-10 1-6z"
          fill="#C9283C"
        />
        <path
          transform="translate(851,550)"
          d="m0 0 2 4 2 5-1 4 2 6-2 1-1 4h-2l2 5v5l-2-1-1-3v4l3 5-1 2h-3l1 3-4-1v3l-4-2 1-2h-7v-2l7-2h-2l-1-3 3-3h-2v-2l-2-1v-8h-2l-1-4 3-1-1-2-5 1-3 1-1-5h2v-3h2l1-3h2l1 3h2l1-2 2 4 2 12 2-3v-3l2-5 2-2-1-4z"
          fill="#C7273B"
        />
        <path
          transform="translate(977,481)"
          d="m0 0 14 5 1 3h4l2 7-2 6-5-1 6 2v7l-6-2h-7l-8-2v-5h2l-1-7z"
          fill="#D5343B"
        />
        <path
          transform="translate(1304,474)"
          d="m0 0h5l4 6 5 5-1 1 4 4-3 2h-2l1 7 2 3v4h-7v-2l-5-2-2-6h-2l-1-8-1-1v-9l-3-2z"
          fill="#FD7C49"
        />
        <path
          transform="translate(1574,508)"
          d="m0 0h2l3 4 2 1-1 5-4 4 9 1 2 1 1-2v3l-6 5-14-1-7-6-3-6v-2l-5-1 4-1 9-3z"
          fill="#FD6B40"
        />
        <path
          transform="translate(554,504)"
          d="m0 0 4 4 5-1 1 4 2-2v2l4 1v2l10 3 15 1-1 18h-5l-3-2v-2l-5-2-3-6-10-5-10-4-2-2-2-5z"
          fill="#FA553C"
        />
        <path
          transform="translate(596,521)"
          d="m0 0h3l4 6 9 6 6 2v2h5l-2 3-1 8-6 4h-3v-3h-3l-6-8v-3l-6-2z"
          fill="#FB553C"
        />
        <path
          transform="translate(1150,648)"
          d="m0 0 2 1-2 4-2 1v2h5l-2 4-6 2v5l-9 2-3-1h-7v-3l-1-4 1-7-6-1 1-2 8 2 9-1 6 1 1-3z"
          fill="#2D102A"
        />
        <path
          transform="translate(1917,552)"
          d="m0 0h3v18l-9 2h-6l-5-4-4-5v-3l15-6z"
          fill="#79002E"
        />
        <path
          transform="translate(623,713)"
          d="m0 0 4 2 2 2-1 8-3 3-1 3-5 1h-11l-5-3-5-1v2l-4-2-1-4h18l2-2v-3z"
          fill="#4E022E"
        />
        <path
          transform="translate(1193,481)"
          d="m0 0h3v2h3l1 3h5l1 2-5 2v-2h-4l-1 6-6 2-3 8h-1v-5l-19-1 1-3 21-12z"
          fill="#FD6B40"
        />
        <path
          transform="translate(855,570)"
          d="m0 0 2 1 1 4 2-1 3 9 2 7v7l2-1-1-5h2v-7l2-3 1 11-1 7 2 1 1 5-2 11-2 3v-2l-6 2-1-3 4-1v-2h-2l1-4-3-2 2-1v-4l-4 1-3-2 6-4 1-3-3-1 1-4-2-1h-2l-3 2 3-10-3 1-1-10z"
          fill="#C9283C"
        />
        <path
          transform="translate(820,536)"
          d="m0 0 2 4 4 5 5 2 4 4 3 1v2l5 2 6-1 2 5-3 3-2 5 2 2h-2l-1 3-2-2-3-14-4 2v-4h-2l-1 4-2-1v3h-2l2 6h-3l-3-5-2-14-3-7z"
          fill="#FA543C"
        />
        <path
          transform="translate(917,563)"
          d="m0 0 6 5 8 6-2 4h-2v-4h-2l2 5-1 4-8 14-4 2 1-4h-1l1-12 1-16z"
          fill="#E33B39"
        />
        <path
          transform="translate(942,563)"
          d="m0 0h25l-5 5-6 5-6-2 2 5-4 2v2l-4 2-4-3v-14l4 1-1-1z"
          fill="#EA523E"
        />
        <path
          transform="translate(1114,514)"
          d="m0 0 4 1 3 2v3l6-1-2 5-3 12-2 2-3-10-2 2v6l-4 4-1-4-1-5v-7l-1-4 5-5z"
          fill="#EF4339"
        />
        <path
          transform="translate(916,485)"
          d="m0 0 4 1 1 13-1 7-1 1h-18v3h-2l-1-13 5-1h16l-1-9z"
          fill="#9C1334"
        />
        <path
          transform="translate(449,472)"
          d="m0 0h1v9l5-2 3 3v3h-2l-1 4-1 1h5l-1 3-2 2h2l-2 4h-2l-1 2h-2v3l2 1h-5l1-4-6-3-1-4 1-3 6 2-1-2-4-2 1-9 4 1z"
          fill="#9C1935"
        />
        <path
          transform="translate(972,521)"
          d="m0 0h2v8 2 10l-5-2-3-3-3-1-2 4-3 2-4-1-5-3v-2l6-4 6 2-3-3z"
          fill="#F26744"
        />
        <path
          transform="translate(434,505)"
          d="m0 0 8 2 2-2 4 2 2 5-2 1-5-2h-2l5 6 4 1v3l-9-1 4 4h-6v2l10 2v2l-5 2-7-2v-5l-4-3-1-6h3v-3l-4-2 3-3z"
          fill="#ED4F3D"
        />
        <path
          transform="translate(954,545)"
          d="m0 0 6 1 10 6 4 5h-33l1-3z"
          fill="#EF5A3F"
        />
        <path
          transform="translate(517,535)"
          d="m0 0h3l1 4-2 2-2-1 3 5 2 3-4-1v-2h-2l5 5 4 2v2h-3v-2h-2v2l-3-1-1-3-2 1 1 3-3 1 9 7-2 1-6-1-2-3-2 1-2-5v-8l-2-9h7l5-1z"
          fill="#C7273B"
        />
        <path
          transform="translate(1557,534)"
          d="m0 0 4 2 1-2 1 5 5-1 1-2 4 1 1 2-2 1v3l7 2v1h-7l-4 1v3h2v2l-3 1 1 2-2 4-9 2v-2l5-4-2-1-1 2h-2v-5h2v-2l3-2 1-5-4 1v2h-2l1-6z"
          fill="#C6263B"
        />
        <path
          transform="translate(1135,671)"
          d="m0 0h2v2l9-1-1 3 7 1 7-1-3 3 1 3-6 2v-3l-5 2-7-1-4 2h-7l-7-3v-3h12v-5z"
          fill="#2D102A"
        />
        <path
          transform="translate(972,563)"
          d="m0 0h3l1 14-8 6-5-2-6-5v-2l11-8z"
          fill="#E83E39"
        />
        <path
          transform="translate(957,596)"
          d="m0 0 4 2 10 8 2 4h-9v-3l-4 1-5 2h-12l1-3 6-5h2v-2z"
          fill="#CF2C3B"
        />
        <path
          transform="translate(913,559)"
          d="m0 0 2 4h2l-1 20-1 11 2-2-1 4-3 1v2l-4-2-6-4 2-3 4 2 1-2h-3v-3h-3v-2l5 1 1-2h-3l1-2 2 1 2-17z"
          fill="#77002E"
        />
        <path
          transform="translate(956,447)"
          d="m0 0h1l1 13 9 5 13 5 1 2 7 3 3 2v2l6 2 8 4v3l-6 1 1-2-5-2v-2l-6-2-7-3v-2l-5-2-10-6-11-6h-5l4-2v-12z"
          fill="#880731"
        />
        <path
          transform="translate(1129,508)"
          d="m0 0 1 4-1 7h-5l-1 2-2-1v-3l-4-2h-3l-5 5h-3v3l-4-1v2h-6l-2 4-2-1-1-7 7 1 2-1 1 1 4-2 1-3h3v-2l-2-1 5-2 16-2z"
          fill="#FC653E"
        />
        <path
          transform="translate(967,587)"
          d="m0 0 4 1 5 4 1 4v11l-5-3-12-9 2-4z"
          fill="#E63C39"
        />
        <path
          transform="translate(472,496)"
          d="m0 0h2l-3 13-4 4h-6l1-4-5 1-3-2 3-3-4-2 4-2 9-3z"
          fill="#FB7647"
        />
        <path
          transform="translate(592,687)"
          d="m0 0 20 1-4 4-6 2v4l4 2-3 5-3 1-5-2-3-6v-2l3-2v-3l-3-2z"
          fill="#2D102A"
        />
        <path
          transform="translate(930,626)"
          d="m0 0 9 3 2 4 3 2 5 1-3 4-4 4 4 4-1 4-4-1-2-8-5 3-2-1 3-5h-2l1-7-1-3-3-1z"
          fill="#57022E"
        />
        <path
          transform="translate(943,586)"
          d="m0 0 5 2 6 5-2 4-5 5-4 3h-3l-1-15z"
          fill="#C9283C"
        />
        <path
          transform="translate(932,594)"
          d="m0 0h2l2 5v11h-14l-1-5 3-5z"
          fill="#C9283C"
        />
        <path
          transform="translate(842,463)"
          d="m0 0 1 2-4 4-8 4-7-1-9-4-1-3z"
          fill="#FDE5D8"
        />
        <path
          transform="translate(1417,535)"
          d="m0 0h8l-3 14-2 4h-1v-6h-2l-1 4-7-11v-4z"
          fill="#EE4239"
        />
        <path
          transform="translate(1108,460)"
          d="m0 0 6 1v2l9-1v2l5-1 7-1 2-1 1 3h1l2-1-2 6-1 1h-5l-1-1-1 2-11-1-6-1v-1h6v-3l-6 1-4-4z"
          fill="#FDDAC7"
        />
        <path
          transform="translate(983,494)"
          d="m0 0h1l1 6 5-1 2 3 5 1v7l-6-2h-7l-8-2v-5h2l-1-4h2l2-2v3h2z"
          fill="#C3263B"
        />
        <path
          transform="translate(955,576)"
          d="m0 0 9 6v2l2 1-8 7-4-2-7-5 1-3h2v-2z"
          fill="#E93F39"
        />
        <path
          transform="translate(1047,568)"
          d="m0 0h3l4 5v2h2v2l4 2 2 4-2 2-2 7-2-1-3-12-3 7-1-2h-2z"
          fill="#ED4239"
        />
        <path
          transform="translate(1471,502)"
          d="m0 0h6l12 5 5 1 2 1-12 5-5 2h-3v-2h2l-1-2h-2v-3h-3z"
          fill="#FC7646"
        />
        <path
          transform="translate(498,532)"
          d="m0 0 1 3-3 7h-2l1 7-3 6-2-1-3-5-2-5h3l-2-5-3-4h3l3 1z"
          fill="#E43F3C"
        />
        <path
          transform="translate(998,515)"
          d="m0 0h4l-1 3-1 1-1 3-5 1 1 8h2l6 7 1 5h-7v-2h-2l1 18-2-1-2-36 4-2v-3h2z"
          fill="#E74F3E"
        />
        <path
          transform="translate(945,561)"
          d="m0 0h15l9 1-1 5-9 7h-2l4 6-4-2h-3l-4 2v2l-6 4-2-1 1-2 7-6v-4l-1-3 7 2 10-8-22-1z"
          fill="#77002E"
        />
        <path
          transform="translate(443,501)"
          d="m0 0 4 2 1 1 8-1 2 2-5 3h-2v4l5-2 1 2 3-1-2 5-8 3-8-2v-3l-1-3 3-1 5 2v-2l-3-2 1-1-4-2z"
          fill="#7E022F"
        />
        <path
          transform="translate(596,737)"
          d="m0 0 22 1 6 2-5 5-2 1h-8l-6-4h-6l-2-3z"
          fill="#4E022E"
        />
        <path
          transform="translate(921,522)"
          d="m0 0 4 2 4 12-10 14h-1l1-14z"
          fill="#EF583E"
        />
        <path
          transform="translate(616,486)"
          d="m0 0h6l6 4-3 1v2l2 1h-16l-5 1v2l-5 5-12 2 1-2 10-1 2-4 3-1v-2l5-1v-2h-2v-2z"
          fill="#FB583C"
        />
        <path
          transform="translate(986,625)"
          d="m0 0 2 1 2 6v8l-4 13-3-4-1-17v-3l2-1v-2z"
          fill="#C7273B"
        />
        <path
          transform="translate(995,552)"
          d="m0 0 3 1v2l5 1 3-1v2h2v-5l2 2 2 5v3l5-1 1-4 2 2-3 6-3 1-4-3v-2l-5 2-1-3-5 4-4-2z"
          fill="#FA613E"
        />
        <path
          transform="translate(1105,691)"
          d="m0 0 19 5v2l-4 3h-7l2 2-4 1-7-3z"
          fill="#4E012E"
        />
        <path
          transform="translate(943,519)"
          d="m0 0h26l-5 5-7 4h-4l-10-8z"
          fill="#E74F3E"
        />
        <path
          transform="translate(940,565)"
          d="m0 0 7 2 5 7-2 4h-2v2l-4 2-4-3z"
          fill="#DC3839"
        />
        <path
          transform="translate(565,500)"
          d="m0 0 20 5 2 2-13 5h-3v-2l-4-1v-3h-2l-1-5z"
          fill="#FD7C49"
        />
        <path
          transform="translate(1150,736)"
          d="m0 0 6 1 4-1 1 3-3 1-2-1 2 8-4 1-2-1v-2l-10-1-3-2 1-3 7-1z"
          fill="#4E022D"
        />
        <path
          transform="translate(542,515)"
          d="m0 0h4l-2 4-3 1-1 3-8 7h-3v-12z"
          fill="#F34F3C"
        />
        <path
          transform="translate(976,616)"
          d="m0 0 2 4v9l-8 6-2-1 2-4-3 1-1-2 1-1 1-5z"
          fill="#CF2C3B"
        />
        <path
          transform="translate(552,496)"
          d="m0 0 8 1 5 3v5h-2v2l-6 2-2-2v-3h-3l-2 4 1-5z"
          fill="#FC7446"
        />
        <path
          transform="translate(932,546)"
          d="m0 0 2 1 3 10-2 1-17-1v-2z"
          fill="#EF5B3F"
        />
        <path
          transform="translate(944,538)"
          d="m0 0 4 1 6 4-4 4-8 6h-2v-12z"
          fill="#ED563E"
        />
        <path
          transform="translate(1166,528)"
          d="m0 0v3l-1 4v4l2 1v3h-2v2l6-2-1 3-5 1-1 2-5-2-2-4v-3l5 1-4-4 2-4v-1-3h5z"
          fill="#7B002F"
        />
        <path
          transform="translate(901,602)"
          d="m0 0h2l2 4 5 1v-2h2v2l3 1-1 5 1 3-7 1-3-3-1-5-5-1v-5z"
          fill="#7A002F"
        />
        <path
          transform="translate(909,579)"
          d="m0 0 1 4-3 1h3l-1 3-5-2v2h3v3h3l-1 3-4-1v-2h-3l-1 4-2 6-2-1v-7l-3-1 2-1v-2h3l1-4 5-1z"
          fill="#E1393A"
        />
        <path
          transform="translate(1248,497)"
          d="m0 0 7 1 2 3 3 4h3l-2 4-3 2h-5l-1-3v-3l-4-1-1-6z"
          fill="#FD7D4A"
        />
        <path
          transform="translate(538,514)"
          d="m0 0 4 1-4 2-8 1-2-1v9l-2 7-2-3v-3l-3-1v-10z"
          fill="#D4313B"
        />
        <path
          transform="translate(454,490)"
          d="m0 0h5l-1 3-2 2h2l-2 4h-2l-1 2h-2v3l2 1h-5l1-4-6-3-1-4 1-3 2 1-1 3 6 1 1-5z"
          fill="#CF4141"
        />
        <path
          transform="translate(980,575)"
          d="m0 0 4 1 3 9-2 9-1 2h-3l-2-12v-8z"
          fill="#E53C39"
        />
        <path
          transform="translate(961,528)"
          d="m0 0 2 1 2 4-2 1 3 1h-3l-2 4-3 2-4-1-5-3v-2l6-4 6 2-3-3z"
          fill="#EF593F"
        />
        <path
          transform="translate(927,583)"
          d="m0 0 3 1 2 8-11 9-4-2 5-7z"
          fill="#E23A39"
        />
        <path
          transform="translate(964,539)"
          d="m0 0 6 1 4 3v9l-12-6-2-3z"
          fill="#F35F3F"
        />
        <path
          transform="translate(940,620)"
          d="m0 0 12 9v3l-4 3-4-1-4-2z"
          fill="#C9283C"
        />
        <path
          transform="translate(1131,507)"
          d="m0 0h2l1 3 2-2 5 1 2 3-2 1-2 5-8 1-1-1v-8z"
          fill="#FC673F"
        />
        <path
          transform="translate(919,560)"
          d="m0 0 15 2 3 1-2 5-2 4-4-2-10-8z"
          fill="#E9513E"
        />
        <path
          transform="translate(1e3 525)"
          d="m0 0 2 1 6 15h2l3 5 7 6 8 5 6 2v1h-7l-2-1v-2l-4-1-10-8-7-10-4-8z"
          fill="#A91836"
        />
        <path
          transform="translate(917,614)"
          d="m0 0h9l9 1-1 5-2 4-5-1-6-4 1-3-5-1z"
          fill="#C9283C"
        />
        <path
          transform="translate(941,520)"
          d="m0 0 12 9v2l-5 3-5-1-2-1z"
          fill="#EF5A3F"
        />
        <path
          transform="translate(839,554)"
          d="m0 0 4 2 6-1 2 5-3 3-2 5 2 2h-2l-1 3-2-2-3-14z"
          fill="#F64E3B"
        />
        <path
          transform="translate(389,531)"
          d="m0 0 3 4-2 1 3 3 2 1v2h-5l-1 2 3 1h-3l-2 7h2v2h-2v2h2l1 5-4 2h-4l-1 2v-3h3v-2l3-1-2-3 1-9 3-8-3-4z"
          fill="#C9283C"
        />
        <path
          transform="translate(1024,453)"
          d="m0 0 9 1-1 6-8 2h-8l2-4z"
          fill="#FD6C40"
        />
        <path
          transform="translate(397,511)"
          d="m0 0 2 2 4-2 1 4-4 3h-2v2l6-1-1 2-5 1-1 2-6-3 1-8h2v2h3z"
          fill="#840530"
        />
        <path
          transform="translate(1444,510)"
          d="m0 0h4l2 4 2 1-1 6-2 5-4-2-1-2z"
          fill="#FD7C49"
        />
        <path
          transform="translate(1392,505)"
          d="m0 0h12l-4 5h-16l-8-2v-1z"
          fill="#FEDAC7"
        />
        <path
          transform="translate(956,447)"
          d="m0 0h1l1 13 9 5 11 4-1 3-6-1-9-6-6-3h-5l4-2v-12z"
          fill="#8D0A32"
        />
        <path
          transform="translate(942,616)"
          d="m0 0h16l-2 2-4 1v3h3v2h5l-1 2h-7l-6-4-4-4z"
          fill="#C9283C"
        />
        <path
          transform="translate(803,538)"
          d="m0 0 2 2 2-1 4 1 1 7v3l-2 3-4 1-3-11z"
          fill="#EF4339"
        />
        <path
          transform="translate(435,513)"
          d="m0 0h2v9l4 1 1-2 3 3h-6v2l10 2v2l-5 2-7-2v-5l-4-3-1-6h3z"
          fill="#CF303C"
        />
        <path
          transform="translate(992,569)"
          d="m0 0h1l2 27-2-1-5-10 2-10z"
          fill="#C9283C"
        />
        <path
          transform="translate(867,576)"
          d="m0 0h3l2 12 2 1v3l1 5-2 3-4 1 1-12-1-5-1 7h-2v-12z"
          fill="#ED4239"
        />
        <path
          transform="translate(978,510)"
          d="m0 0h2v2l9 1 8 2-2 4-13-2v-2h-5l-1-3z"
          fill="#C7273B"
        />
        <path
          transform="translate(22,488)"
          d="m0 0 7 6 1 1h14l11 5v2l-5 1-5-5-6-1-4 2 1 5-4-1v-3l-10-10z"
          fill="#FD7344"
        />
        <path
          transform="translate(958,596)"
          d="m0 0 8 6 7 6v2h-9v-3h-3l-1-2v-6l-3-1z"
          fill="#C9283C"
        />
        <path
          transform="translate(1047,557)"
          d="m0 0 2 1 1 5 6 9 5 6-1 2-4-3v-2h-2l-4-5v-2h-3v16h-1v-17z"
          fill="#C7273B"
        />
        <path
          transform="translate(453,507)"
          d="m0 0 5 2 4-1v3l-1 7-3 2-7 1 1-4 5-2 3-4h-2l-1 2-3-2-3 1v-4z"
          fill="#CC2E3B"
        />
        <path
          transform="translate(1600,511)"
          d="m0 0 6 1 2-1v9l-2 1 3 1v3h-6l-2-6 2-1-3-4z"
          fill="#FD7B48"
        />
        <path
          transform="translate(1597,510)"
          d="m0 0 4 2 1 4 2 3h-3l2 5-2 1-2-4-5-1-1-7z"
          fill="#FC6C40"
        />
        <path
          transform="translate(981,549)"
          d="m0 0 4 2 6 5-1 3-10-1-2-3z"
          fill="#E9533F"
        />
        <path
          transform="translate(811,540)"
          d="m0 0 1 2 7 1 1-2-2 12-5 2-1-7-1-1z"
          fill="#FA533C"
        />
        <path
          transform="translate(988,527)"
          d="m0 0h2l2 23h-2l-2-9h-2l-1-5z"
          fill="#E44E3F"
        />
        <path
          transform="translate(465,524)"
          d="m0 0 2 4 1 5-2 1v6h-4l-2-5v-3l-4-2 4-3v2h3z"
          fill="#CB2B3B"
        />
        <path
          transform="translate(796,466)"
          d="m0 0h14l-2 4-7 2-6-1-4-3z"
          fill="#FDE5D8"
        />
        <path
          transform="translate(988,588)"
          d="m0 0 2 2 5 12v3l-5-2-4-4 1-10z"
          fill="#CD2B3B"
        />
        <path
          transform="translate(733,540)"
          d="m0 0h2l1 9h2l1 5-7 3-1-2 1-3-3-1 1-4 2-1v-2h2z"
          fill="#B51E38"
        />
        <path
          transform="translate(932,576)"
          d="m0 0 5 4v8l-4 2-4-8 2-5z"
          fill="#DB353A"
        />
        <path
          transform="translate(616,486)"
          d="m0 0h6v1l-9 2 1 3 4-1v2l-12 2v2l-5 5-12 2 1-2 10-1 2-4 3-1v-2l5-1v-2h-2v-2z"
          fill="#FD7445"
        />
        <path
          transform="translate(860,589)"
          d="m0 0h2v4l2 1-1 4-6 4-2-1 1-2h-3l-1-4 2-1v2h2l2-4z"
          fill="#71002E"
        />
        <path
          transform="translate(915,576)"
          d="m0 0 2 1 1 3v8h-2v2l6-2-2 6-5 5v-3-1h-1l1-12z"
          fill="#CA293B"
        />
        <path
          transform="translate(924,519)"
          d="m0 0h14l-1 5-2 3-5-2-5-3z"
          fill="#E74F3E"
        />
        <path
          transform="translate(976,652)"
          d="m0 0 5 1 2 13-6-1v-4h2v-3l-6-2 1-3z"
          fill="#4E022E"
        />
        <path
          transform="translate(977,527)"
          d="m0 0h3l3 9-3 9h-2z"
          fill="#E24C3F"
        />
        <path
          transform="translate(881,579)"
          d="m0 0 2 1v15l-4 2-4-3 1-9 3 4z"
          fill="#E43B39"
        />
        <path
          transform="translate(1470,504)"
          d="m0 0h3l-1 5h3v3l3-1v3h-2v2l3 1-4 1v-2h-5l-2-8h3z"
          fill="#BA2039"
        />
        <path
          transform="translate(927,529)"
          d="m0 0 2 4 4-2-2 8h-3l-6 11-1 3h-3l-1-4 5-5 6-9z"
          fill="#7A002F"
        />
        <path
          transform="translate(703,501)"
          d="m0 0 4 3 4-2v3h9v1l-14 1-2-1-1 3-7 3-3 2v-3l7-4z"
          fill="#FD6C40"
        />
        <path
          transform="translate(1334,667)"
          d="m0 0 3 2v3h-2l-1 3h-6l-1-3-2-1 3-3z"
          fill="#2D102A"
        />
        <path
          transform="translate(917,563)"
          d="m0 0 5 5v6h2l-1 6h-3l-1-7h-2z"
          fill="#F5583D"
        />
        <path
          transform="translate(375,565)"
          d="m0 0h2l1 3 5-1 1-2 4 3-5 1 3 3h-6l-2 3-5-1z"
          fill="#DB3B3C"
        />
        <path
          transform="translate(971,529)"
          d="m0 0 2 1 1 1v10l-5-2-3-3v-3z"
          fill="#B21C38"
        />
        <path
          transform="translate(1143,631)"
          d="m0 0h3l-1 3-3 3-5 1-10-4-1-2 15 1z"
          fill="#2D102A"
        />
        <path
          transform="translate(563,505)"
          d="m0 0 4 1v3l4 1v2l9 3 4 3-8-1-6-3v-2l-5-1-2 1z"
          fill="#F54F3B"
        />
        <path
          transform="translate(230,606)"
          d="m0 0h2l2 4-1 11h-4v-13z"
          fill="#7A002F"
        />
        <path
          transform="translate(489,542)"
          d="m0 0 3 4h3l-1 6-3 3-4-6-2-5h3z"
          fill="#CC2B3B"
        />
        <path
          transform="translate(1006,498)"
          d="m0 0 1 2v8l-1 5-2-2h-3v-12z"
          fill="#C0283A"
        />
        <path
          transform="translate(976,632)"
          d="m0 0h2l1 14-4-1v-4l-5-1v-2l5-5z"
          fill="#C9283C"
        />
        <path
          transform="translate(992,489)"
          d="m0 0h4l2 7-2 6-4-1z"
          fill="#CF3A3C"
        />
        <path
          transform="translate(930,597)"
          d="m0 0 2 3-4 9h-5v-4z"
          fill="#EF4339"
        />
        <path
          transform="translate(933,531)"
          d="m0 0 4 1 1 1-1 7-4 2-2-3v-5z"
          fill="#EC543E"
        />
        <path
          transform="translate(402,507)"
          d="m0 0h10l-1 5-4 3-3-2v-3h-3z"
          fill="#FDDBC8"
        />
        <path
          transform="translate(931,630)"
          d="m0 0 3 1 1 3-2 6h2l-1 3h-2l-1-2h-3l1-7z"
          fill="#C9283C"
        />
        <path
          transform="translate(910,605)"
          d="m0 0h2v2l3 1-1 5 1 3-7 1v-9l2-2z"
          fill="#4E012E"
        />
        <path
          transform="translate(443,501)"
          d="m0 0 4 2 1 1 8-1 2 2-5 3h-2l-1 3-4-3 1-1-4-2z"
          fill="#900F33"
        />
        <path
          transform="translate(1099,467)"
          d="m0 0h14l1 3-10 1-10-1 1-2z"
          fill="#FEDAC7"
        />
        <path
          transform="translate(991,639)"
          d="m0 0 3 1-1 6h2v2l-2 1-1 5h-3l-1 3 1-7z"
          fill="#C7273B"
        />
        <path
          transform="translate(985,601)"
          d="m0 0 9 6 1 2h-12z"
          fill="#C9283C"
        />
        <path
          transform="translate(554,504)"
          d="m0 0 4 4 5-1v8h-5l-2-2-2-5z"
          fill="#FB6641"
        />
        <path
          transform="translate(539,491)"
          d="m0 0h13l8 1v2l-3 1 2 2-5-1-4-1-11-3z"
          fill="#FEDAC7"
        />
        <path
          transform="translate(783,739)"
          d="m0 0h12l5 1v2l-7 1h-8l-2-1z"
          fill="#4E022E"
        />
        <path
          transform="translate(1575,529)"
          d="m0 0 7 1-1 5-2 1 1 3-6-2-2-1v-3l2-1z"
          fill="#C9283C"
        />
        <path
          transform="translate(596,521)"
          d="m0 0h3l4 6 9 6 6 2v1h-7l-4-2v-2l-4-2-5-6-2 4z"
          fill="#EA3F39"
        />
        <path
          transform="translate(884,578)"
          d="m0 0 1 3 3 1-3 8v3l-3 1v-13z"
          fill="#F74F3B"
        />
        <path
          transform="translate(711,562)"
          d="m0 0 4 3-1 3h-2l-1 7-3 2v-11z"
          fill="#F24739"
        />
        <path
          transform="translate(1779,526)"
          d="m0 0 3 1-1 5 5 2-2 2h-9l-1-3h2l1-3h3v-2l-2-1z"
          fill="#FC7A48"
        />
        <path
          transform="translate(427,490)"
          d="m0 0h2v4l3 1-5 4h-2v4l2 1-4 1-1-4 2-4-2-1 4-2z"
          fill="#CF413F"
        />
        <path
          transform="translate(1095,744)"
          d="m0 0 11 5 1 3h-3l-1 2-8-6z"
          fill="#7A002F"
        />
        <path
          transform="translate(456,481)"
          d="m0 0 2 1v3h-2l-1 4-5 2v-5l-2-1h3v-2z"
          fill="#E06458"
        />
        <path
          transform="translate(928,538)"
          d="m0 0h2l2 5-9 7-2-1z"
          fill="#E34B3E"
        />
        <path
          transform="translate(943,588)"
          d="m0 0 3 1-2 6-2 2h2l-1 4-3 1v-11z"
          fill="#ED4139"
        />
        <path
          transform="translate(953,578)"
          d="m0 0v3l-1 5 4 3 4-1h3l-5 4-4-2-7-5 1-3h2v-2z"
          fill="#C9283C"
        />
        <path
          transform="translate(397,503)"
          d="m0 0h1v5l4-1-1 3h3l-1 3v-2l-6 4-3-1h2l-2-5 1-2h2z"
          fill="#CD3F41"
        />
        <path
          transform="translate(618,747)"
          d="m0 0h6l-1 4-2 1h-11l4-3z"
          fill="#4E022E"
        />
        <path
          transform="translate(1120,717)"
          d="m0 0h16l-4 4-5 2-5-1v-2l4-1-6-1z"
          fill="#4E022E"
        />
        <path
          transform="translate(997,580)"
          d="m0 0h1l2 25v7h-1l-2-16-1-11z"
          fill="#C9283C"
        />
        <path
          transform="translate(402,516)"
          d="m0 0 1 2 4-1v8l-3 2v-4l-6 1v-2l5-2h-5v-2z"
          fill="#CE2F3C"
        />
        <path
          transform="translate(1482,507)"
          d="m0 0h7l5 1 2 1-12 5-5 1 4-4 1-3z"
          fill="#FD6C41"
        />
        <path
          transform="translate(1136,642)"
          d="m0 0 5 1 1 2-5 5-3-2-2-4z"
          fill="#2D102A"
        />
        <path
          transform="translate(977,481)"
          d="m0 0 9 4v2l-3 1-2 6h-1v-8l-3 1z"
          fill="#B31D38"
        />
        <path
          transform="translate(836,661)"
          d="m0 0 4 1-3 2 2 2-1 4h-4l-2-3 1-4z"
          fill="#7A002F"
        />
        <path
          transform="translate(163,524)"
          d="m0 0 4 1h-3v7l1 2-1 2 2 1h-5l-1-9-4-2z"
          fill="#FD6C40"
        />
        <path
          transform="translate(954,520)"
          d="m0 0h14l-4 4-5 1v-2l-6-1z"
          fill="#F87146"
        />
        <path
          transform="translate(1008,552)"
          d="m0 0 2 2 2 5v3l5-1 1-4 2 2-3 6-3 1-3-2-3-8z"
          fill="#FD673F"
        />
        <path
          transform="translate(983,540)"
          d="m0 0h2l2 5 2 4v3l-4-2-3-2z"
          fill="#E34D3F"
        />
        <path
          transform="translate(519,520)"
          d="m0 0 2 1-4 5-12 5-2 3-2-7h2l1 2 11-6 4-1z"
          fill="#D4303B"
        />
        <path
          transform="translate(428,497)"
          d="m0 0 4 2v2h2v3l-4 1-5-2v-4z"
          fill="#9A1534"
        />
        <path
          transform="translate(1055,725)"
          d="m0 0h7l1 4-2 1h-7l-1-2z"
          fill="#830430"
        />
        <path
          transform="translate(987,527)"
          d="m0 0 1 3-2 8-1 3-3-1v-6l-1-3h3z"
          fill="#7A002F"
        />
        <path
          transform="translate(1579,522)"
          d="m0 0 6 1 2 1 1-2v3l-3 2h-2l-2 2h-3l-1-3h2z"
          fill="#E44C3E"
        />
        <path
          transform="translate(956,447)"
          d="m0 0h1l1 13 4 4-4-1-7-1 4-2v-12z"
          fill="#7A002F"
        />
        <path
          transform="translate(1877,544)"
          d="m0 0 11 1 3 2 2 9-3-3-1-4-10-3z"
          fill="#7A002F"
        />
        <path
          transform="translate(985,522)"
          d="m0 0 3 1-4 10-2-2-1-6z"
          fill="#E64F3F"
        />
        <path
          transform="translate(1091,473)"
          d="m0 0 4 2 5 5 2-4 3-1-2 4-5 5-3-5v-2h-2v-2h-2z"
          fill="#6B1330"
        />
        <path
          transform="translate(988,568)"
          d="m0 0h2l-1 7-1 5-3-3-1-5z"
          fill="#C9283B"
        />
        <path
          transform="translate(952,566)"
          d="m0 0 5 1 1 4-4 2-6-4z"
          fill="#EC483C"
        />
        <path
          transform="translate(1019,550)"
          d="m0 0 5 2 8 5 6 2v1h-7l-2-1v-2l-4-1-6-5z"
          fill="#9F1335"
        />
        <path
          transform="translate(980,563)"
          d="m0 0h10l-4 5-4 1z"
          fill="#E2453D"
        />
        <path
          transform="translate(780,563)"
          d="m0 0 4 8 3 1 1 3-5 3-2-3z"
          fill="#F44A3A"
        />
        <path
          transform="translate(1555,521)"
          d="m0 0 4 1v2h-2l-1 8-3 1 1 2-4-2v-3h4z"
          fill="#C2243A"
        />
        <path
          transform="translate(443,505)"
          d="m0 0 5 2 2 5-2 1-5-2-3 1v-3l3-1z"
          fill="#D8403E"
        />
        <path
          transform="translate(940,565)"
          d="m0 0 5 2v5l-5 2z"
          fill="#F55D3E"
        />
        <path
          transform="translate(834,555)"
          d="m0 0h2l1 5-3 2v2l-4 2-1-5h2v-3h2z"
          fill="#D4313B"
        />
        <path
          transform="translate(389,531)"
          d="m0 0 3 4-2 1 3 3 2 1v2h-7l1-3-3-4z"
          fill="#C6263B"
        />
        <path
          transform="translate(1478,530)"
          d="m0 0 5 1v2l3 1-6 3-3-1 4-3-2-1v2h-6v-2z"
          fill="#C9283C"
        />
        <path
          transform="translate(1577,522)"
          d="m0 0h2l-1 7 5-3 2-1-1 4-2 1h-6l-1-7z"
          fill="#FD7243"
        />
        <path
          transform="translate(538,514)"
          d="m0 0 4 1-4 2-8 1-8-1-1 2v-3z"
          fill="#E33A39"
        />
        <path
          transform="translate(1318,484)"
          d="m0 0h7l1 4h12l1 2-15-1-2-1v-2z"
          fill="#FEDAC7"
        />
        <path
          transform="translate(922,634)"
          d="m0 0h5l-1 8-4 2z"
          fill="#4E022E"
        />
        <path
          transform="translate(1040,561)"
          d="m0 0h4l-1 19-1 6h-1v-23z"
          fill="#C9283C"
        />
        <path
          transform="translate(1088,730)"
          d="m0 0 8 2 2 4v3l-5-2v-2l-5-3z"
          fill="#7A002F"
        />
        <path
          transform="translate(810,647)"
          d="m0 0 10 1-2 1-2 4-5-2z"
          fill="#2D102A"
        />
        <path
          transform="translate(902,590)"
          d="m0 0h2v3l5 3v3l-5-2-3-2-1 3 1-5z"
          fill="#C9283C"
        />
        <path
          transform="translate(984,577)"
          d="m0 0h2l2 2 1 3 1 7-4 1-1-9z"
          fill="#7A002F"
        />
        <path
          transform="translate(1050,567)"
          d="m0 0 3 1 8 10-1 2-4-3v-2h-2l-4-5z"
          fill="#A31535"
        />
        <path
          transform="translate(408,547)"
          d="m0 0 2 1v2l4 1v5l-2 3-4-1 3-2-1-2h-2l-1-5z"
          fill="#CA2A3C"
        />
        <path
          transform="translate(946,641)"
          d="m0 0 4 3 1 2-2 2-5-1-1-4z"
          fill="#C9283C"
        />
        <path
          transform="translate(1e3 612)"
          d="m0 0 2 2 2-2 1 5-5 4-1-5-1-2h2z"
          fill="#C6263B"
        />
        <path
          transform="translate(726,546)"
          d="m0 0 4 2v3l2 1v3l-3-1v-2l-4 1-1-6z"
          fill="#F14B3B"
        />
        <path
          transform="translate(1466,520)"
          d="m0 0 5 4v2l-6-1-1 1h-2l-1-4z"
          fill="#CA283B"
        />
        <path
          transform="translate(1077,719)"
          d="m0 0h2l1 2 8 3v2l-9-1z"
          fill="#77002E"
        />
        <path
          transform="translate(1096,604)"
          d="m0 0 5 1 2 4-5-1-2-1h-8v-1z"
          fill="#C9283C"
        />
        <path
          transform="translate(974,581)"
          d="m0 0h2v9l-6-4z"
          fill="#D02D3B"
        />
        <path
          transform="translate(1064,552)"
          d="m0 0h2l-2 7v3l-3 2v-7z"
          fill="#FD583D"
        />
        <path
          transform="translate(1466,511)"
          d="m0 0 3 3-1 3 3 3-5-1-2 1-1-4z"
          fill="#C4253B"
        />
        <path
          transform="translate(622,487)"
          d="m0 0 5 2 1 2h-3v2l2 1h-8v-3h5z"
          fill="#FD7545"
        />
        <path
          transform="translate(1090,718)"
          d="m0 0 5 2 1 4-7-1z"
          fill="#7A002F"
        />
        <path
          transform="translate(871,592)"
          d="m0 0 3 1 1 4-2 3-4 1 1-8z"
          fill="#E73D39"
        />
        <path
          transform="translate(921,588)"
          d="m0 0 1 2-5 8-3 1 2-4v-5z"
          fill="#C9283C"
        />
        <path
          transform="translate(1337,524)"
          d="m0 0 3 2h8l-4 2v2h-5l-3-3z"
          fill="#F04539"
        />
        <path
          transform="translate(1128,475)"
          d="m0 0 10 1 5-1v2l-10 3-5-3z"
          fill="#992F3B"
        />
        <path
          transform="translate(895,629)"
          d="m0 0 9 2-4 3h-4l-3 3 1-6z"
          fill="#C9283C"
        />
        <path
          transform="translate(819,596)"
          d="m0 0 4 2-1 2-7 2-2 1 1-4z"
          fill="#C6263B"
        />
        <path
          transform="translate(972,532)"
          d="m0 0h1v8l-4-1-3-3z"
          fill="#F66842"
        />
        <path
          transform="translate(922,465)"
          d="m0 0h2v5l5-2 4 1-4 2-8 2z"
          fill="#840530"
        />
        <path
          transform="translate(1108,460)"
          d="m0 0 6 1v2l9-1-1 2-4 2h-4l-4-4z"
          fill="#831B33"
        />
        <path
          transform="translate(976,596)"
          d="m0 0h1v11l-5-3-2-3h3v2h2z"
          fill="#C9283C"
        />
        <path
          transform="translate(993,580)"
          d="m0 0h1l1 16-2-1-3-6 1-3 1 1z"
          fill="#C9283C"
        />
        <path
          transform="translate(923,568)"
          d="m0 0 8 6-2 4h-2v-4h-2z"
          fill="#DD3E3C"
        />
        <path
          transform="translate(438,517)"
          d="m0 0h10l2 1v3l-11-1z"
          fill="#D5363C"
        />
        <path
          transform="translate(571,512)"
          d="m0 0 9 3 4 3-8-1-5-3z"
          fill="#E93F39"
        />
        <path
          transform="translate(925,464)"
          d="m0 0 7 1-1 3-6 2z"
          fill="#FD7847"
        />
        <path
          transform="translate(1118,717)"
          d="m0 0 10 1 1 2h-7v3h-2v-3h-2z"
          fill="#76002E"
        />
        <path
          transform="translate(843,679)"
          d="m0 0 3 1 1 3h-7-3v-3z"
          fill="#7A002F"
        />
        <path
          transform="translate(927,593)"
          d="m0 0 2 1-8 7-4-2 5-5v3z"
          fill="#C9283C"
        />
        <path
          transform="translate(1011,586)"
          d="m0 0 2 1 3 11-2 3-2-3h2v-2h-2z"
          fill="#C6263B"
        />
        <path
          transform="translate(961,528)"
          d="m0 0 2 1 2 4-2 1 3 1h-3l-1 2v-2l-2-1v-2l-2-2z"
          fill="#E0483D"
        />
        <path
          transform="translate(439,526)"
          d="m0 0 10 2v2l-5 2-4-2z"
          fill="#C2263A"
        />
        <path
          transform="translate(479,512)"
          d="m0 0 5 1v4l1 2-4 1-2-6z"
          fill="#C0233A"
        />
        <path
          transform="translate(978,690)"
          d="m0 0 5 2 1 4h-6l-1-5z"
          fill="#7A002F"
        />
        <path
          transform="translate(977,607)"
          d="m0 0h1l1 6-2 3-4-1 3-1-2-4z"
          fill="#4E022E"
        />
        <path
          transform="translate(991,577)"
          d="m0 0 2 1v11l-3-3z"
          fill="#EF4339"
        />
        <path
          transform="translate(980,575)"
          d="m0 0 4 1-1 3-1-1-1 12-2-4v-10z"
          fill="#C9283C"
        />
        <path
          transform="translate(926,525)"
          d="m0 0 5 2 2 3-2 3h-2z"
          fill="#E0463E"
        />
        <path
          transform="translate(394,522)"
          d="m0 0 3 1v2h-5l4 3-1 2-4-1v-2h-2l-1-3z"
          fill="#C8293C"
        />
        <path
          transform="translate(565,509)"
          d="m0 0 1 2 4 1 1 3-5 2-1-4z"
          fill="#FD7B49"
        />
        <path
          transform="translate(989,490)"
          d="m0 0h2l1 8-2 2h-3v-4h2z"
          fill="#E5403B"
        />
        <path
          transform="translate(959,644)"
          d="m0 0 4 1 3 3v2l-9-2z"
          fill="#4E022E"
        />
        <path
          transform="translate(890,623)"
          d="m0 0 1 3-1 6-5-5z"
          fill="#C9283C"
        />
        <path
          transform="translate(1151,572)"
          d="m0 0 1 2 7 2-2 3-6-1z"
          fill="#C2243B"
        />
        <path
          transform="translate(972,563)"
          d="m0 0h3l1 14-4 2 1-3 1-12z"
          fill="#C9283C"
        />
        <path
          transform="translate(417,533)"
          d="m0 0 1 3 2 2-6 5 1-8z"
          fill="#C4263A"
        />
      </svg>