<svg fill="#FFFFFF" viewBox="0 0 50 50" width="50px" height="50px" xmlns="http://www.w3.org/2000/svg">
  <defs></defs>
  <path d="M 9 4 C 6.2504839 4 4 6.2504839 4 9 L 4 41 C 4 43.749516 6.2504839 46 9 46 L 41 46 C 43.749516 46 46 43.749516 46 41 L 46 9 C 46 6.2504839 43.749516 4 41 4 L 9 4 z M 9 6 L 41 6 C 42.668484 6 44 7.3315161 44 9 L 44 41 C 44 42.668484 42.668484 44 41 44 L 9 44 C 7.3315161 44 6 42.668484 6 41 L 6 9 C 6 7.3315161 7.3315161 6 9 6 z M 14 11.011719 C 12.904779 11.011719 11.919219 11.339079 11.189453 11.953125 C 10.459687 12.567171 10.011719 13.484511 10.011719 14.466797 C 10.011719 16.333977 11.631285 17.789609 13.691406 17.933594 A 0.98809878 0.98809878 0 0 0 13.695312 17.935547 A 0.98809878 0.98809878 0 0 0 14 17.988281 C 16.27301 17.988281 17.988281 16.396083 17.988281 14.466797 A 0.98809878 0.98809878 0 0 0 17.986328 14.414062 C 17.884577 12.513831 16.190443 11.011719 14 11.011719 z M 14 12.988281 C 15.392231 12.988281 15.94197 13.610038 16.001953 14.492188 C 15.989803 15.348434 15.460091 16.011719 14 16.011719 C 12.614594 16.011719 11.988281 15.302225 11.988281 14.466797 C 11.988281 14.049083 12.140703 13.734298 12.460938 13.464844 C 12.78117 13.19539 13.295221 12.988281 14 12.988281 z M 11 19 A 1.0001 1.0001 0 0 0 10 20 L 10 39 A 1.0001 1.0001 0 0 0 11 40 L 17 40 A 1.0001 1.0001 0 0 0 18 39 L 18 33.134766 L 18 20 A 1.0001 1.0001 0 0 0 17 19 L 11 19 z M 20 19 A 1.0001 1.0001 0 0 0 19 20 L 19 39 A 1.0001 1.0001 0 0 0 20 40 L 26 40 A 1.0001 1.0001 0 0 0 27 39 L 27 29 C 27 28.170333 27.226394 27.345035 27.625 26.804688 C 28.023606 26.264339 28.526466 25.940057 29.482422 25.957031 C 30.468166 25.973981 30.989999 26.311669 31.384766 26.841797 C 31.779532 27.371924 32 28.166667 32 29 L 32 39 A 1.0001 1.0001 0 0 0 33 40 L 39 40 A 1.0001 1.0001 0 0 0 40 39 L 40 28.261719 C 40 25.300181 39.122788 22.95433 37.619141 21.367188 C 36.115493 19.780044 34.024172 19 31.8125 19 C 29.710483 19 28.110853 19.704889 27 20.423828 L 27 20 A 1.0001 1.0001 0 0 0 26 19 L 20 19 z M 12 21 L 16 21 L 16 33.134766 L 16 38 L 12 38 L 12 21 z M 21 21 L 25 21 L 25 22.560547 A 1.0001 1.0001 0 0 0 26.798828 23.162109 C 26.798828 23.162109 28.369194 21 31.8125 21 C 33.565828 21 35.069366 21.582581 36.167969 22.742188 C 37.266572 23.901794 38 25.688257 38 28.261719 L 38 38 L 34 38 L 34 29 C 34 27.833333 33.720468 26.627107 32.990234 25.646484 C 32.260001 24.665862 31.031834 23.983076 29.517578 23.957031 C 27.995534 23.930001 26.747519 24.626988 26.015625 25.619141 C 25.283731 26.611293 25 27.829667 25 29 L 25 38 L 21 38 L 21 21 z" style="stroke-width: 0px;"></path>
  <rect x="11.623" y="20.562" width="4.699" height="18.17" style="stroke: rgb(255, 255, 255); stroke-width: 0px;"></rect>
  <rect x="20.833" y="21" width="5.263" height="17.732" style="stroke: rgb(255, 255, 255); stroke-width: 0px;"></rect>
  <rect x="33.114" y="24.321" width="6.078" height="14.724" style="stroke-width: 0px; stroke: rgb(255, 255, 255);"></rect>
  <path style="stroke: rgb(255, 255, 255); stroke-width: 0px;" d="M 25.846 22.817 C 25.846 23.277 25.846 23.736 25.846 24.196 C 25.846 24.261 25.881 25.7 25.971 25.7 C 26.06 25.7 26.81 26.114 27.036 25.888 C 27.437 25.487 29.532 24.566 30.42 25.01 C 32.504 26.053 36.943 27.128 38.315 24.384 C 38.645 23.723 38.066 22.881 37.563 22.629 C 36.912 22.304 36.03 22.434 35.307 22.254 C 34.254 21.99 32.869 21.752 31.798 21.752 C 31.551 21.752 29.605 21.314 29.605 21.314 C 29.605 21.314 30.152 21.086 30.232 21.063 C 30.79 20.904 31.219 20.75 31.798 20.75 C 33.404 20.75 35.291 20.961 36.623 21.627 C 36.727 21.679 38.001 22.003 38.001 22.003 C 38.001 22.003 37.621 21.844 37.437 21.752 C 36.936 21.502 36.433 21.25 35.934 21 C 34.545 20.306 33.127 20.437 31.61 20.437 C 31.277 20.437 30.414 20.283 30.107 20.437 C 29.073 20.953 27.633 21.907 26.786 22.755 C 26.715 22.826 25.674 23.397 25.407 23.131 C 25.199 22.922 26.817 22.238 27.036 22.128 C 27.044 22.124 27.736 21.92 27.726 21.94 C 27.117 23.158 25.721 23.265 25.721 24.76 C 25.721 25.148 25.595 25.596 25.595 25.888 C 25.595 26.056 25.364 26.389 25.533 26.389 C 26.388 26.389 26.861 25.7 27.538 25.7"></path>
  <path style="stroke: rgb(0, 0, 0); stroke-width: 0px;" d="M 12.312 16.118 C 11.846 15.497 11.762 15.193 11.31 14.74 C 10.985 14.416 11.232 13.314 11.435 13.111 C 11.985 12.561 15.252 12.292 15.946 12.986 C 16.266 13.306 17.262 13.4 17.262 14.051 C 17.262 15.998 14.898 16.181 13.189 16.181 C 12.881 16.181 11.748 15.555 11.748 15.555"></path>
</svg>
