<svg fill="#FFFFFF" viewBox="0 0 50 50" width="50px" height="50px" xmlns="http://www.w3.org/2000/svg">
  <defs></defs>
  <path d="M 14 11.012 C 12.905 11.012 11.919 11.339 11.189 11.953 C 10.46 12.567 10.012 13.485 10.012 14.467 C 10.012 16.334 11.631 17.79 13.691 17.934 C 13.693 17.934 13.694 17.935 13.695 17.936 C 13.793 17.969 13.896 17.987 14 17.988 C 16.273 17.988 17.988 16.396 17.988 14.467 C 17.988 14.449 17.987 14.432 17.986 14.414 C 17.885 12.514 16.19 11.012 14 11.012 Z M 14 12.988 C 15.392 12.988 15.942 13.61 16.002 14.492 C 15.99 15.348 15.46 16.012 14 16.012 C 12.615 16.012 11.988 15.302 11.988 14.467 C 11.988 14.049 12.141 13.734 12.461 13.465 C 12.781 13.195 13.295 12.988 14 12.988 Z M 11 19 C 10.448 19 10 19.448 10 20 L 10 39 C 10 39.552 10.448 40 11 40 L 17 40 C 17.552 40 18 39.552 18 39 L 18 33.135 L 18 20 C 18 19.448 17.552 19 17 19 L 11 19 Z M 20 19 C 19.448 19 19 19.448 19 20 L 19 39 C 19 39.552 19.448 40 20 40 L 26 40 C 26.552 40 27 39.552 27 39 L 27 29 C 27 28.17 27.226 27.345 27.625 26.805 C 28.024 26.264 28.526 25.94 29.482 25.957 C 30.468 25.974 30.99 26.312 31.385 26.842 C 31.78 27.372 32 28.167 32 29 L 32 39 C 32 39.552 32.448 40 33 40 L 39 40 C 39.552 40 40 39.552 40 39 L 40 28.262 C 40 25.3 39.123 22.954 37.619 21.367 C 36.115 19.78 34.024 19 31.813 19 C 29.71 19 28.111 19.705 27 20.424 L 27 20 C 27 19.448 26.552 19 26 19 L 20 19 Z M 12 21 L 16 21 L 16 33.135 L 16 38 L 12 38 L 12 21 Z M 21 21 L 25 21 L 25 22.561 C 25 23.33 25.834 23.811 26.5 23.426 C 26.617 23.359 26.718 23.269 26.799 23.162 C 26.799 23.162 28.369 21 31.813 21 C 33.566 21 35.069 21.583 36.168 22.742 C 37.267 23.902 38 25.688 38 28.262 L 38 38 L 34 38 L 34 29 C 34 27.833 33.72 26.627 32.99 25.646 C 32.26 24.666 31.032 23.983 29.518 23.957 C 27.996 23.93 26.748 24.627 26.016 25.619 C 25.284 26.611 25 27.83 25 29 L 25 38 L 21 38 L 21 21 Z" style="stroke-width: 0px;"></path>
  <rect x="11.623" y="20.562" width="4.699" height="18.17" style="stroke: rgb(255, 255, 255); stroke-width: 0px;"></rect>
  <rect x="20.833" y="21" width="5.263" height="17.732" style="stroke: rgb(255, 255, 255); stroke-width: 0px;"></rect>
  <rect x="33.114" y="24.321" width="6.078" height="14.724" style="stroke-width: 0px; stroke: rgb(255, 255, 255);"></rect>
  <path style="stroke: rgb(255, 255, 255); stroke-width: 0px;" d="M 25.846 22.817 C 25.846 23.277 25.846 23.736 25.846 24.196 C 25.846 24.261 25.881 25.7 25.971 25.7 C 26.06 25.7 26.81 26.114 27.036 25.888 C 27.437 25.487 29.532 24.566 30.42 25.01 C 32.504 26.053 36.943 27.128 38.315 24.384 C 38.645 23.723 38.066 22.881 37.563 22.629 C 36.912 22.304 36.03 22.434 35.307 22.254 C 34.254 21.99 32.869 21.752 31.798 21.752 C 31.551 21.752 29.605 21.314 29.605 21.314 C 29.605 21.314 30.152 21.086 30.232 21.063 C 30.79 20.904 31.219 20.75 31.798 20.75 C 33.404 20.75 35.291 20.961 36.623 21.627 C 36.727 21.679 38.001 22.003 38.001 22.003 C 38.001 22.003 37.621 21.844 37.437 21.752 C 36.936 21.502 36.433 21.25 35.934 21 C 34.545 20.306 33.127 20.437 31.61 20.437 C 31.277 20.437 30.414 20.283 30.107 20.437 C 29.073 20.953 27.633 21.907 26.786 22.755 C 26.715 22.826 25.674 23.397 25.407 23.131 C 25.199 22.922 26.817 22.238 27.036 22.128 C 27.044 22.124 27.736 21.92 27.726 21.94 C 27.117 23.158 25.721 23.265 25.721 24.76 C 25.721 25.148 25.595 25.596 25.595 25.888 C 25.595 26.056 25.364 26.389 25.533 26.389 C 26.388 26.389 26.861 25.7 27.538 25.7"></path>
  <path style="stroke: rgb(0, 0, 0); stroke-width: 0px;" d="M 12.312 16.118 C 11.846 15.497 11.762 15.193 11.31 14.74 C 10.985 14.416 11.232 13.314 11.435 13.111 C 11.985 12.561 15.252 12.292 15.946 12.986 C 16.266 13.306 17.262 13.4 17.262 14.051 C 17.262 15.998 14.898 16.181 13.189 16.181 C 12.881 16.181 11.748 15.555 11.748 15.555"></path>
</svg>