<svg xmlns:dc="http://purl.org/dc/elements/1.1/" xmlns:cc="http://creativecommons.org/ns#" xmlns:rdf="http://www.w3.org/1999/02/22-rdf-syntax-ns#" xmlns:svg="http://www.w3.org/2000/svg" xmlns="http://www.w3.org/2000/svg" xmlns:sodipodi="http://sodipodi.sourceforge.net/DTD/sodipodi-0.dtd" xmlns:inkscape="http://www.inkscape.org/namespaces/inkscape" version="1.1" x="0px" y="0px" viewBox="0 0 100 125"><g transform="translate(0,-952.36218)"><path style="text-indent:0;text-transform:none;direction:ltr;block-progression:tb;baseline-shift:baseline;color:#000000;enable-background:accumulate;" d="m 43.523092,1046.3544 a 2.0000571,1.9999527 0 0 1 -1.46875,-0.7188 l -13.3125,-16.0625 -13.28125,-16.0624 a 2.0000571,1.9999527 0 0 1 0,-2.5625 l 13.28125,-16.06253 13.3125,-16.0313 a 2.0000571,1.9999527 0 0 1 3.53125,1.25 l 0,17.1563 c 7.15443,1.7814 12.65258,2.0753 16.59375,1.2187 4.20968,-0.9149 6.69018,-2.9182 8.25,-6.0312 3.11965,-6.226 1.83124,-17.6694 -2.90625,-31.4375 a 2.000005,2.000005 0 0 1 3.46875,-1.875 c 13.56329,17.6983 16.94274,35.5676 11.59375,48.96873 -5.01468,12.5636 -17.75378,20.7585 -35.5,20.8437 -0.49817,0 -0.99394,-0.021 -1.5,-0.031 l 0,15.4375 a 2.0000571,1.9999527 0 0 1 -2.0625,2 z m -1.9375,-7.5625 0,-11.6875 a 2.000005,2.000005 0 0 1 0,-0.4063 2.0000571,1.9999527 0 0 1 0,-0.062 2.000005,2.000005 0 0 1 0.03125,-0.1875 2.000005,2.000005 0 0 1 0.03125,-0.1562 2.0000571,1.9999527 0 0 1 0.03125,-0.031 2.000005,2.000005 0 0 1 0.03125,-0.1563 2.0000571,1.9999527 0 0 1 0.03125,-0.031 2.000005,2.000005 0 0 1 0.0625,-0.125 2.0000571,1.9999527 0 0 1 0.03125,-0.062 2.000005,2.000005 0 0 1 0.0625,-0.125 2.0000571,1.9999527 0 0 1 0.0625,-0.094 2.000005,2.000005 0 0 1 0.03125,-0.062 2.0000571,1.9999527 0 0 1 0.0625,-0.062 2.000005,2.000005 0 0 1 0.09375,-0.094 2.0000571,1.9999527 0 0 1 0.03125,-0.062 2.000005,2.000005 0 0 1 0.09375,-0.062 2.0000571,1.9999527 0 0 1 0.0625,-0.062 2.000005,2.000005 0 0 1 0.09375,-0.062 2.0000571,1.9999527 0 0 1 0.0625,-0.062 2.000005,2.000005 0 0 1 0.125,-0.062 2.0000571,1.9999527 0 0 1 0.03125,-0.031 2.0000571,1.9999527 0 0 1 0.34375,-0.125 2.0000571,1.9999527 0 0 1 1.03125,-0.062 2.0000571,1.9999527 0 0 1 0.03125,0 c 18.22239,0.8976 30.16567,-6.608 34.8125,-18.2499 3.63277,-9.10143 2.76385,-21.03543 -3.875,-33.84383 1.78783,8.553 1.78117,15.9182 -1,21.4687 -2.05788,4.1071 -5.80978,7.03503 -10.96875,8.15633 -5.07914,1.104 -11.51422,0.6097 -19.59375,-1.5312 -0.01993,0 -0.04255,0 -0.0625,0 a 2.0000571,1.9999527 0 0 1 -0.6875,-0.2188 2.0000571,1.9999527 0 0 1 -0.0625,-0.031 2.000005,2.000005 0 0 1 -0.09375,-0.062 2.0000571,1.9999527 0 0 1 -0.3125,-0.25 2.0000571,1.9999527 0 0 1 -0.0625,-0.062 2.000005,2.000005 0 0 1 -0.09375,-0.094 2.0000571,1.9999527 0 0 1 -0.0625,-0.094 2.000005,2.000005 0 0 1 -0.0625,-0.062 2.0000571,1.9999527 0 0 1 -0.03125,-0.062 2.000005,2.000005 0 0 1 -0.0625,-0.094 2.0000571,1.9999527 0 0 1 -0.03125,-0.062 2.000005,2.000005 0 0 1 -0.0625,-0.125 2.0000571,1.9999527 0 0 1 -0.03125,-0.062 2.000005,2.000005 0 0 1 -0.03125,-0.125 2.0000571,1.9999527 0 0 1 -0.03125,-0.125 2.000005,2.000005 0 0 1 -0.03125,-0.062 2.0000571,1.9999527 0 0 1 0,-0.094 2.000005,2.000005 0 0 1 -0.03125,-0.094 2.0000571,1.9999527 0 0 1 0,-0.094 2.000005,2.000005 0 0 1 0,-0.5 l 0,-12.8125 -9.75,11.7813 -12.25,14.7812 12.25,14.7812 9.75,11.7813 z" fill="#000000" fill-opacity="1" fill-rule="evenodd" stroke="none" marker="none" visibility="visible" display="inline" overflow="visible"/></g><text x="0" y="115" fill="#000000" font-size="5px" font-weight="bold" font-family="'Helvetica Neue', Helvetica, Arial-Unicode, Arial, Sans-serif">Created by andriwidodo</text><text x="0" y="120" fill="#000000" font-size="5px" font-weight="bold" font-family="'Helvetica Neue', Helvetica, Arial-Unicode, Arial, Sans-serif">from the Noun Project</text></svg>